<svg xmlns="http://www.w3.org/2000/svg" xmlns:svg="http://www.w3.org/2000/svg" id="svg2" width="1000" height="499" version="1.1" viewBox="0 0 1000 499" xml:space="preserve"><metadata id="metadata8"/><g id="g10" transform="matrix(1.25,0,0,-1.25,0,499)"><g id="g12" transform="scale(0.1,0.1)"><path id="path14" d="M 6476.1262,3.8687586 4002.141,962.83678 1528.2591,4.1131885 2505.0758,1532.4826 -0.81654949,2468.4049 3076.8615,2454.0529 4002.0305,3991.2072 4927.288,2453.969 8005.0319,2468.0364 5499.1401,1532.3403 6476.1262,3.8687586" style="fill:#000;fill-opacity:1;fill-rule:nonzero;stroke:none"/><path id="path16" d="M 6141.4743,277.229 4004.278,1105.6131 1867.1923,277.40047 2711.0287,1597.7089 546.28434,2406.1993 3204.9636,2393.8173 4004.2043,3721.714 4803.4929,2393.7443 7462.2127,2405.9148 5297.4941,1597.5958 6141.4743,277.229" style="fill:#619cbc;fill-opacity:1;fill-rule:nonzero;stroke:none"/><path id="path18" d="m 2363.7468,3205.7479 c 213.4801,0 89.0587,-533.441 13.1421,-694.2905 -65.0108,-137.7053 -211.3653,-336.321 -384.8184,-336.321 -208.1083,0 -201.9185,233.0877 -119.079,408.5555 44.8462,94.9994 113.7698,201.4906 208.7273,279.7811 -24.3058,-81.7198 57.8558,-137.5374 24.6264,-207.9478 -22.6958,-48.0834 -69.6716,-100.6176 -94.0806,-152.3346 -39.4781,-83.6097 -24.3943,-232.0042 70.9795,-232.0042 85.3744,0 161.2357,105.7579 192.3355,171.6373 63.7139,134.9946 223.0227,710.9008 44.9494,710.9008 -205.0871,0 -558.4851,-499.7681 -632.4895,-656.5316 -132.0923,-279.8176 -36.3427,-624.4857 264.6266,-624.4857 203.3592,0 370.6262,195.5075 451.4209,366.6741 48.129,101.9492 74.336,203.3877 84.6559,299.0364 l 39.4781,7.2234 c 8.7209,-263.2948 287.2635,-699.2703 168.6892,-950.4385 -151.7521,-321.4728 -605.5052,-318.5944 -864.5905,-432.6848 -54.4588,127.3882 -128.2348,245.8272 -232.1158,336.2189 231.1062,77.7397 799.0197,208.2762 922.5053,469.8783 51.8981,109.9168 16.5649,292.1558 -43.3946,353.92 -10.202,-38.8498 -24.3206,-78.4511 -43.0593,-118.14 -105.7379,-223.9817 -332.1281,-397.6839 -565.5223,-397.6839 -324.9473,0 -462.7061,233.5 -309.7787,557.5046 91.7815,194.413 560.46,841.5322 802.7925,841.5322" style="fill:#000;fill-opacity:1;fill-rule:nonzero;stroke:none"/><path id="path20" d="m 2363.7468,3205.7479 c 213.4801,0 89.0587,-533.441 13.1421,-694.2905 -65.0108,-137.7053 -211.3653,-336.321 -384.8184,-336.321 -208.1083,0 -201.9185,233.0877 -119.079,408.5555 44.8462,94.9994 113.7698,201.4906 208.7273,279.7811 -24.3058,-81.7198 57.8558,-137.5374 24.6264,-207.9478 -22.6958,-48.0834 -69.6716,-100.6176 -94.0806,-152.3346 -39.4781,-83.6097 -24.3943,-232.0042 70.9795,-232.0042 85.3744,0 161.2357,105.7579 192.3355,171.6373 63.7139,134.9946 223.0227,710.9008 44.9494,710.9008 -205.0871,0 -558.4851,-499.7681 -632.4895,-656.5316 -132.0923,-279.8176 -36.3427,-624.4857 264.6266,-624.4857 203.3592,0 370.6262,195.5075 451.4209,366.6741 48.129,101.9492 74.336,203.3877 84.6559,299.0364 l 39.4781,7.2234 c 8.7209,-263.2948 287.2635,-699.2703 168.6892,-950.4385 -151.7521,-321.4728 -605.5052,-318.5944 -864.5905,-432.6848 -54.4588,127.3882 -128.2348,245.8272 -232.1158,336.2189 231.1062,77.7397 799.0197,208.2762 922.5053,469.8783 51.8981,109.9168 16.5649,292.1558 -43.3946,353.92 -10.202,-38.8498 -24.3206,-78.4511 -43.0593,-118.14 -105.7379,-223.9817 -332.1281,-397.6839 -565.5223,-397.6839 -324.9473,0 -462.7061,233.5 -309.7787,557.5046 91.7815,194.413 560.46,841.5322 802.7925,841.5322 z" style="fill:none;stroke:#000;stroke-width:357.58380127;stroke-linecap:butt;stroke-linejoin:round;stroke-miterlimit:3.8636899;stroke-opacity:1;stroke-dasharray:none"/><path id="path22" d="m 2918.9086,2433.6886 c 12.9101,-31.7212 50.2291,-211.3371 78.5804,-211.3371 61.2085,0 171.8283,166.548 201.5022,209.7866 54.433,-35.643 24.2359,-110.4751 125.1104,-110.4751 45.6679,0 68.6363,98.374 116.161,99.9719 1.6838,-39.7618 4.2297,-75.7441 -17.4455,-121.6751 -33.432,-70.8263 -118.0143,-166.7924 -201.1559,-166.7924 -59.5543,0 -142.4969,71.6982 -158.7893,71.6982 -17.7034,0 -50.1849,-8.2814 -60.549,-30.2108 -43.2914,-91.7342 72.4533,-397.9684 188.5369,-397.9684 62.0302,0 136.0493,45.5004 200.9275,73.577 -16.8929,-110.3473 -19.2398,-203.3876 3.1096,-298.3285 -59.1232,-37.4635 -128.3784,-53.2566 -183.9572,-53.2566 -285.2371,0 -127.9326,663.361 -390.9492,804.689 l 98.9181,130.3213" style="fill:#000;fill-opacity:1;fill-rule:nonzero;stroke:none"/><path id="path24" d="m 2918.9086,2433.6886 c 12.9101,-31.7212 50.2291,-211.3371 78.5804,-211.3371 61.2085,0 171.8283,166.548 201.5022,209.7866 54.433,-35.643 24.2359,-110.4751 125.1104,-110.4751 45.6679,0 68.6363,98.374 116.161,99.9719 1.6838,-39.7618 4.2297,-75.7441 -17.4455,-121.6751 -33.432,-70.8263 -118.0143,-166.7924 -201.1559,-166.7924 -59.5543,0 -142.4969,71.6982 -158.7893,71.6982 -17.7034,0 -50.1849,-8.2814 -60.549,-30.2108 -43.2914,-91.7342 72.4533,-397.9684 188.5369,-397.9684 62.0302,0 136.0493,45.5004 200.9275,73.577 -16.8929,-110.3473 -19.2398,-203.3876 3.1096,-298.3285 -59.1232,-37.4635 -128.3784,-53.2566 -183.9572,-53.2566 -285.2371,0 -127.9326,663.361 -390.9492,804.689 l 98.9181,130.3213 z" style="fill:none;stroke:#000;stroke-width:357.58380127;stroke-linecap:butt;stroke-linejoin:round;stroke-miterlimit:3.8636899;stroke-opacity:1;stroke-dasharray:none"/><path id="path26" d="m 4015.1837,2486.8466 c 215.5729,0 300.682,-387.7936 203.9671,-592.6916 -75.0507,-158.956 -208.0936,-274.1847 -378.5328,-274.1847 -301.0062,0 -263.2855,410.3213 -145.8645,659.0999 32.3857,68.5316 143.0275,217.9075 229.5735,217.9075 31.7962,0 58.1395,-10.1311 90.8567,-10.1311 z m -6.6687,-36.1975 c -33.9331,0 -63.7766,-16.7745 -79.5088,-50.1629 -33.0489,-69.9726 131.7164,-140.7843 108.0627,-190.8633 -14.8849,-31.5205 -71.5506,-61.0199 -100.1413,-61.0199 -142.8433,0 -141.6275,185.8579 -56.4815,306.9894 -52.9445,-33.7313 -87.6513,-85.2623 -110.1997,-133.0574 -83.7091,-177.2957 -17.2798,-421.1966 173.7552,-421.1966 105.5574,0 227.1418,94.8388 274.3755,194.9493 58.1395,123.0978 -90.5251,354.3614 -209.8621,354.3614" style="fill:#000;fill-opacity:1;fill-rule:evenodd;stroke:none"/><path id="path28" d="m 4015.1837,2486.8466 c 215.5729,0 300.682,-387.7936 203.9671,-592.6916 -75.0507,-158.956 -208.0936,-274.1847 -378.5328,-274.1847 -301.0062,0 -263.2855,410.3213 -145.8645,659.0999 32.3857,68.5316 143.0275,217.9075 229.5735,217.9075 31.7962,0 58.1395,-10.1311 90.8567,-10.1311 z" style="fill:none;stroke:#000;stroke-width:357.58380127;stroke-linecap:butt;stroke-linejoin:round;stroke-miterlimit:3.8636899;stroke-opacity:1;stroke-dasharray:none"/><path id="path30" d="m 4008.515,2450.6491 c -33.9331,0 -63.7766,-16.7745 -79.5088,-50.1629 -33.0489,-69.9726 131.7164,-140.7843 108.0627,-190.8633 -14.8849,-31.5205 -71.5506,-61.0199 -100.1413,-61.0199 -142.8433,0 -141.6275,185.8579 -56.4815,306.9894 -52.9445,-33.7313 -87.6513,-85.2623 -110.1997,-133.0574 -83.7091,-177.2957 -17.2798,-421.1966 173.7552,-421.1966 105.5574,0 227.1418,94.8388 274.3755,194.9493 58.1395,123.0978 -90.5251,354.3614 -209.8621,354.3614 z" style="fill:none;stroke:#000;stroke-width:357.58380127;stroke-linecap:butt;stroke-linejoin:round;stroke-miterlimit:3.8636899;stroke-opacity:1;stroke-dasharray:none"/><path id="path32" d="m 4994.8963,1848.4247 c -56.3341,-119.3219 -161.302,-184.8328 -279.4968,-184.8328 -375.1064,0 -449.5308,342.0451 -286.9761,686.4323 38.3912,81.2857 101.394,171.2104 197.5931,171.2104 301.3452,0 511.2809,-371.1213 368.8798,-672.8099 z m -299.2819,629.6005 c -27.6697,0 -51.9497,-10.0034 -65.2135,-38.1201 -29.1802,-61.8371 129.5795,-116.9725 129.8006,-180.8745 -16.5797,-19.6347 -63.0028,-41.6115 -83.2301,-41.6115 -114.3262,0 -200.6143,154.9942 -103.0151,270.1827 -39.6071,-25.1544 -63.1134,-62.8039 -79.8405,-98.2025 -98.9623,-209.6297 42.1125,-421.5687 247.6638,-421.5687 85.5512,0 195.8246,47.6128 240.2582,141.7694 62.8923,133.2581 -161.1178,368.4252 -286.4234,368.4252" style="fill:#000;fill-opacity:1;fill-rule:evenodd;stroke:none"/><path id="path34" d="m 4994.8963,1848.4247 c -56.3341,-119.3219 -161.302,-184.8328 -279.4968,-184.8328 -375.1064,0 -449.5308,342.0451 -286.9761,686.4323 38.3912,81.2857 101.394,171.2104 197.5931,171.2104 301.3452,0 511.2809,-371.1213 368.8798,-672.8099 z" style="fill:none;stroke:#000;stroke-width:357.58380127;stroke-linecap:butt;stroke-linejoin:round;stroke-miterlimit:3.8636899;stroke-opacity:1;stroke-dasharray:none"/><path id="path36" d="m 4695.6144,2478.0252 c -27.6697,0 -51.9497,-10.0034 -65.2135,-38.1201 -29.1802,-61.8371 129.5795,-116.9725 129.8006,-180.8745 -16.5797,-19.6347 -63.0028,-41.6115 -83.2301,-41.6115 -114.3262,0 -200.6143,154.9942 -103.0151,270.1827 -39.6071,-25.1544 -63.1134,-62.8039 -79.8405,-98.2025 -98.9623,-209.6297 42.1125,-421.5687 247.6638,-421.5687 85.5512,0 195.8246,47.6128 240.2582,141.7694 62.8923,133.2581 -161.1178,368.4252 -286.4234,368.4252 z" style="fill:none;stroke:#000;stroke-width:357.58380127;stroke-linecap:butt;stroke-linejoin:round;stroke-miterlimit:3.8636899;stroke-opacity:1;stroke-dasharray:none"/><path id="path38" d="m 5382.8243,2480.0755 c 323.2672,0 487.5167,-593.2023 343.0523,-899.1666 -27.596,-58.5026 -79.0667,-116.9725 -146.9329,-116.9725 -369.3219,0 -275.0388,734.1034 -482.9481,942.6788 19.0114,20.1928 37.2122,41.3269 53.9024,62.6033 140.4853,-164.8699 70.6664,-598.7622 370.722,-598.7622 69.1189,0 121.4002,60.5238 149.2909,119.5919 74.4981,157.8434 -63.3713,431.9843 -214.2833,431.9843 -1.5106,0 -23.1748,-0.8974 -22.6958,-9.675 5.5634,-100.7416 84.8144,-37.9231 5.0108,-209.3743 -81.5353,16.2454 -167.8971,147.1395 -123.3161,241.5953 13.1164,27.7592 45.9442,35.497 68.1978,35.497" style="fill:#000;fill-opacity:1;fill-rule:nonzero;stroke:none"/><path id="path40" d="m 5382.8243,2480.0755 c 323.2672,0 487.5167,-593.2023 343.0523,-899.1666 -27.596,-58.5026 -79.0667,-116.9725 -146.9329,-116.9725 -369.3219,0 -275.0388,734.1034 -482.9481,942.6788 19.0114,20.1928 37.2122,41.3269 53.9024,62.6033 140.4853,-164.8699 70.6664,-598.7622 370.722,-598.7622 69.1189,0 121.4002,60.5238 149.2909,119.5919 74.4981,157.8434 -63.3713,431.9843 -214.2833,431.9843 -1.5106,0 -23.1748,-0.8974 -22.6958,-9.675 5.5634,-100.7416 84.8144,-37.9231 5.0108,-209.3743 -81.5353,16.2454 -167.8971,147.1395 -123.3161,241.5953 13.1164,27.7592 45.9442,35.497 68.1978,35.497 z" style="fill:none;stroke:#000;stroke-width:357.58380127;stroke-linecap:butt;stroke-linejoin:round;stroke-miterlimit:3.8636899;stroke-opacity:1;stroke-dasharray:none"/><path id="path42" d="m 6186.6447,2486.6751 c 30.433,-2.8784 76.1929,-0.1568 102.3152,-8.1099 4.9002,-1.4812 1.179,-7.6102 2.0264,-12.4404 7.9214,-44.8183 20.4114,-87.3564 31.2066,-130.6642 42.1125,-168.7735 67.461,-342.0196 115.8,-509.2972 52.576,-182.1259 107.3996,-387.3668 43.7335,-615.9051 -6.2266,-22.3599 -14.5532,-45.0627 -25.3116,-67.8494 -72.177,-152.9256 -693.7313,-329.12312 -855.9912,-329.12312 -19.7114,0 -41.0071,5.58906 -50.4023,18.41251 68.4557,43.53772 111.3419,88.1699 141.959,152.99856 36.6596,77.69585 36.1069,150.47395 31.2804,217.48065 12.969,-7.5372 490.501,4.2319 507.8176,4.2319 70.1874,0 130.4638,67.8786 158.6124,127.545 51.7287,109.574 42.8862,221.4025 33.9331,314.7164 -4.4949,46.7116 -10.7952,92.7994 -19.4903,137.5629 l -13.1901,64.8251 -1.658,7.0994 -1.6211,7.0811 c 7.8477,0 0.8106,-13.7646 1.1053,-20.6926 4.8266,-112.9668 2.8001,-270.6788 -57.8815,-399.249 -28.2224,-59.7394 -74.3508,-121.3321 -145.1645,-121.3321 -310.3719,0 -154.2648,880.258 -402.9971,1089.5009 13.7796,22.7612 26.0854,46.1754 36.4017,69.1336 147.1908,-177.7663 154.8912,-667.8082 371.5325,-667.8082 52.576,0 106.9206,49.28 129.2848,96.6338 96.2359,203.8728 -63.6292,441.3784 -133.3008,575.2494" style="fill:#000;fill-opacity:1;fill-rule:evenodd;stroke:none"/><path id="path44" d="m 6186.6447,2486.6751 c 30.433,-2.8784 76.1929,-0.1568 102.3152,-8.1099 4.9002,-1.4812 1.179,-7.6102 2.0264,-12.4404 7.9214,-44.8183 20.4114,-87.3564 31.2066,-130.6642 42.1125,-168.7735 67.461,-342.0196 115.8,-509.2972 52.576,-182.1259 107.3996,-387.3668 43.7335,-615.9051 -6.2266,-22.3599 -14.5532,-45.0627 -25.3116,-67.8494 -72.177,-152.9256 -693.7313,-329.12312 -855.9912,-329.12312 -19.7114,0 -41.0071,5.58906 -50.4023,18.41251 68.4557,43.53772 111.3419,88.1699 141.959,152.99856 36.6596,77.69585 36.1069,150.47395 31.2804,217.48065 12.969,-7.5372 490.501,4.2319 507.8176,4.2319 70.1874,0 130.4638,67.8786 158.6124,127.545 51.7287,109.574 42.8862,221.4025 33.9331,314.7164 -4.4949,46.7116 -10.7952,92.7994 -19.4903,137.5629 l -13.1901,64.8251 -1.658,7.0994 -1.6211,7.0811 c 7.8477,0 0.8106,-13.7646 1.1053,-20.6926 4.8266,-112.9668 2.8001,-270.6788 -57.8815,-399.249 -28.2224,-59.7394 -74.3508,-121.3321 -145.1645,-121.3321 -310.3719,0 -154.2648,880.258 -402.9971,1089.5009 13.7796,22.7612 26.0854,46.1754 36.4017,69.1336 147.1908,-177.7663 154.8912,-667.8082 371.5325,-667.8082 52.576,0 106.9206,49.28 129.2848,96.6338 96.2359,203.8728 -63.6292,441.3784 -133.3008,575.2494 z" style="fill:none;stroke:#000;stroke-width:357.58380127;stroke-linecap:butt;stroke-linejoin:round;stroke-miterlimit:3.8636899;stroke-opacity:1;stroke-dasharray:none"/><path id="path46" d="m 2363.7468,3205.7479 c 213.4801,0 89.0587,-533.441 13.1421,-694.2905 -65.0108,-137.7053 -211.3653,-336.321 -384.8184,-336.321 -208.1083,0 -201.9185,233.0877 -119.079,408.5555 44.8462,94.9994 113.7698,201.4906 208.7273,279.7811 -24.3058,-81.7198 57.8558,-137.5374 24.6264,-207.9478 -22.6958,-48.0834 -69.6716,-100.6176 -94.0806,-152.3346 -39.4781,-83.6097 -24.3943,-232.0042 70.9795,-232.0042 85.3744,0 161.2357,105.7579 192.3355,171.6373 63.7139,134.9946 223.0227,710.9008 44.9494,710.9008 -205.0871,0 -558.4851,-499.7681 -632.4895,-656.5316 -132.0923,-279.8176 -36.3427,-624.4857 264.6266,-624.4857 203.3592,0 370.6262,195.5075 451.4209,366.6741 48.129,101.9492 74.336,203.3877 84.6559,299.0364 l 39.4781,7.2234 c 8.7209,-263.2948 287.2635,-699.2703 168.6892,-950.4385 -151.7521,-321.4728 -605.5052,-318.5944 -864.5905,-432.6848 -54.4588,127.3882 -128.2348,245.8272 -232.1158,336.2189 231.1062,77.7397 799.0197,208.2762 922.5053,469.8783 51.8981,109.9168 16.5649,292.1558 -43.3946,353.92 -10.202,-38.8498 -24.3206,-78.4511 -43.0593,-118.14 -105.7379,-223.9817 -332.1281,-397.6839 -565.5223,-397.6839 -324.9473,0 -462.7061,233.5 -309.7787,557.5046 91.7815,194.413 560.46,841.5322 802.7925,841.5322" style="fill:#000;fill-opacity:1;fill-rule:nonzero;stroke:none"/><path id="path48" d="m 2363.7468,3205.7479 c 213.4801,0 89.0587,-533.441 13.1421,-694.2905 -65.0108,-137.7053 -211.3653,-336.321 -384.8184,-336.321 -208.1083,0 -201.9185,233.0877 -119.079,408.5555 44.8462,94.9994 113.7698,201.4906 208.7273,279.7811 -24.3058,-81.7198 57.8558,-137.5374 24.6264,-207.9478 -22.6958,-48.0834 -69.6716,-100.6176 -94.0806,-152.3346 -39.4781,-83.6097 -24.3943,-232.0042 70.9795,-232.0042 85.3744,0 161.2357,105.7579 192.3355,171.6373 63.7139,134.9946 223.0227,710.9008 44.9494,710.9008 -205.0871,0 -558.4851,-499.7681 -632.4895,-656.5316 -132.0923,-279.8176 -36.3427,-624.4857 264.6266,-624.4857 203.3592,0 370.6262,195.5075 451.4209,366.6741 48.129,101.9492 74.336,203.3877 84.6559,299.0364 l 39.4781,7.2234 c 8.7209,-263.2948 287.2635,-699.2703 168.6892,-950.4385 -151.7521,-321.4728 -605.5052,-318.5944 -864.5905,-432.6848 -54.4588,127.3882 -128.2348,245.8272 -232.1158,336.2189 231.1062,77.7397 799.0197,208.2762 922.5053,469.8783 51.8981,109.9168 16.5649,292.1558 -43.3946,353.92 -10.202,-38.8498 -24.3206,-78.4511 -43.0593,-118.14 -105.7379,-223.9817 -332.1281,-397.6839 -565.5223,-397.6839 -324.9473,0 -462.7061,233.5 -309.7787,557.5046 91.7815,194.413 560.46,841.5322 802.7925,841.5322 z" style="fill:none;stroke:#000;stroke-width:29.799263;stroke-linecap:butt;stroke-linejoin:miter;stroke-miterlimit:3.86370993;stroke-opacity:1;stroke-dasharray:none"/><path id="path50" d="m 2918.9086,2433.6886 c 12.9101,-31.7212 50.2291,-211.3371 78.5804,-211.3371 61.2085,0 171.8283,166.548 201.5022,209.7866 54.433,-35.643 24.2359,-110.4751 125.1104,-110.4751 45.6679,0 68.6363,98.374 116.161,99.9719 1.6838,-39.7618 4.2297,-75.7441 -17.4455,-121.6751 -33.432,-70.8263 -118.0143,-166.7924 -201.1559,-166.7924 -59.5543,0 -142.4969,71.6982 -158.7893,71.6982 -17.7034,0 -50.1849,-8.2814 -60.549,-30.2108 -43.2914,-91.7342 72.4533,-397.9684 188.5369,-397.9684 62.0302,0 136.0493,45.5004 200.9275,73.577 -16.8929,-110.3473 -19.2398,-203.3876 3.1096,-298.3285 -59.1232,-37.4635 -128.3784,-53.2566 -183.9572,-53.2566 -285.2371,0 -127.9326,663.361 -390.9492,804.689 l 98.9181,130.3213" style="fill:#000;fill-opacity:1;fill-rule:nonzero;stroke:none"/><path id="path52" d="m 2918.9086,2433.6886 c 12.9101,-31.7212 50.2291,-211.3371 78.5804,-211.3371 61.2085,0 171.8283,166.548 201.5022,209.7866 54.433,-35.643 24.2359,-110.4751 125.1104,-110.4751 45.6679,0 68.6363,98.374 116.161,99.9719 1.6838,-39.7618 4.2297,-75.7441 -17.4455,-121.6751 -33.432,-70.8263 -118.0143,-166.7924 -201.1559,-166.7924 -59.5543,0 -142.4969,71.6982 -158.7893,71.6982 -17.7034,0 -50.1849,-8.2814 -60.549,-30.2108 -43.2914,-91.7342 72.4533,-397.9684 188.5369,-397.9684 62.0302,0 136.0493,45.5004 200.9275,73.577 -16.8929,-110.3473 -19.2398,-203.3876 3.1096,-298.3285 -59.1232,-37.4635 -128.3784,-53.2566 -183.9572,-53.2566 -285.2371,0 -127.9326,663.361 -390.9492,804.689 l 98.9181,130.3213 z" style="fill:none;stroke:#000;stroke-width:29.799263;stroke-linecap:butt;stroke-linejoin:miter;stroke-miterlimit:3.86370993;stroke-opacity:1;stroke-dasharray:none"/><path id="path54" d="m 4015.1837,2486.8466 c 215.5729,0 300.682,-387.7936 203.9671,-592.6916 -75.0507,-158.956 -208.0936,-274.1847 -378.5328,-274.1847 -301.0062,0 -263.2855,410.3213 -145.8645,659.0999 32.3857,68.5316 143.0275,217.9075 229.5735,217.9075 31.7962,0 58.1395,-10.1311 90.8567,-10.1311 z m -6.6687,-36.1975 c -33.9331,0 -63.7766,-16.7745 -79.5088,-50.1629 -33.0489,-69.9726 131.7164,-140.7843 108.0627,-190.8633 -14.8849,-31.5205 -71.5506,-61.0199 -100.1413,-61.0199 -142.8433,0 -141.6275,185.8579 -56.4815,306.9894 -52.9445,-33.7313 -87.6513,-85.2623 -110.1997,-133.0574 -83.7091,-177.2957 -17.2798,-421.1966 173.7552,-421.1966 105.5574,0 227.1418,94.8388 274.3755,194.9493 58.1395,123.0978 -90.5251,354.3614 -209.8621,354.3614" style="fill:#000;fill-opacity:1;fill-rule:evenodd;stroke:none"/><path id="path56" d="m 4015.1837,2486.8466 c 215.5729,0 300.682,-387.7936 203.9671,-592.6916 -75.0507,-158.956 -208.0936,-274.1847 -378.5328,-274.1847 -301.0062,0 -263.2855,410.3213 -145.8645,659.0999 32.3857,68.5316 143.0275,217.9075 229.5735,217.9075 31.7962,0 58.1395,-10.1311 90.8567,-10.1311 z" style="fill:none;stroke:#000;stroke-width:29.799263;stroke-linecap:butt;stroke-linejoin:miter;stroke-miterlimit:3.86370993;stroke-opacity:1;stroke-dasharray:none"/><path id="path58" d="m 4008.515,2450.6491 c -33.9331,0 -63.7766,-16.7745 -79.5088,-50.1629 -33.0489,-69.9726 131.7164,-140.7843 108.0627,-190.8633 -14.8849,-31.5205 -71.5506,-61.0199 -100.1413,-61.0199 -142.8433,0 -141.6275,185.8579 -56.4815,306.9894 -52.9445,-33.7313 -87.6513,-85.2623 -110.1997,-133.0574 -83.7091,-177.2957 -17.2798,-421.1966 173.7552,-421.1966 105.5574,0 227.1418,94.8388 274.3755,194.9493 58.1395,123.0978 -90.5251,354.3614 -209.8621,354.3614 z" style="fill:none;stroke:#000;stroke-width:29.799263;stroke-linecap:butt;stroke-linejoin:miter;stroke-miterlimit:3.86370993;stroke-opacity:1;stroke-dasharray:none"/><path id="path60" d="m 4994.8963,1848.4247 c -56.3341,-119.3219 -161.302,-184.8328 -279.4968,-184.8328 -375.1064,0 -449.5308,342.0451 -286.9761,686.4323 38.3912,81.2857 101.394,171.2104 197.5931,171.2104 301.3452,0 511.2809,-371.1213 368.8798,-672.8099 z m -299.2819,629.6005 c -27.6697,0 -51.9497,-10.0034 -65.2135,-38.1201 -29.1802,-61.8371 129.5795,-116.9725 129.8006,-180.8745 -16.5797,-19.6347 -63.0028,-41.6115 -83.2301,-41.6115 -114.3262,0 -200.6143,154.9942 -103.0151,270.1827 -39.6071,-25.1544 -63.1134,-62.8039 -79.8405,-98.2025 -98.9623,-209.6297 42.1125,-421.5687 247.6638,-421.5687 85.5512,0 195.8246,47.6128 240.2582,141.7694 62.8923,133.2581 -161.1178,368.4252 -286.4234,368.4252" style="fill:#000;fill-opacity:1;fill-rule:evenodd;stroke:none"/><path id="path62" d="m 4994.8963,1848.4247 c -56.3341,-119.3219 -161.302,-184.8328 -279.4968,-184.8328 -375.1064,0 -449.5308,342.0451 -286.9761,686.4323 38.3912,81.2857 101.394,171.2104 197.5931,171.2104 301.3452,0 511.2809,-371.1213 368.8798,-672.8099 z" style="fill:none;stroke:#000;stroke-width:29.799263;stroke-linecap:butt;stroke-linejoin:miter;stroke-miterlimit:3.86370993;stroke-opacity:1;stroke-dasharray:none"/><path id="path64" d="m 4695.6144,2478.0252 c -27.6697,0 -51.9497,-10.0034 -65.2135,-38.1201 -29.1802,-61.8371 129.5795,-116.9725 129.8006,-180.8745 -16.5797,-19.6347 -63.0028,-41.6115 -83.2301,-41.6115 -114.3262,0 -200.6143,154.9942 -103.0151,270.1827 -39.6071,-25.1544 -63.1134,-62.8039 -79.8405,-98.2025 -98.9623,-209.6297 42.1125,-421.5687 247.6638,-421.5687 85.5512,0 195.8246,47.6128 240.2582,141.7694 62.8923,133.2581 -161.1178,368.4252 -286.4234,368.4252 z" style="fill:none;stroke:#000;stroke-width:29.799263;stroke-linecap:butt;stroke-linejoin:miter;stroke-miterlimit:3.86370993;stroke-opacity:1;stroke-dasharray:none"/><path id="path66" d="m 5382.8243,2480.0755 c 323.2672,0 487.5167,-593.2023 343.0523,-899.1666 -27.596,-58.5026 -79.0667,-116.9725 -146.9329,-116.9725 -369.3219,0 -275.0388,734.1034 -482.9481,942.6788 19.0114,20.1928 37.2122,41.3269 53.9024,62.6033 140.4853,-164.8699 70.6664,-598.7622 370.722,-598.7622 69.1189,0 121.4002,60.5238 149.2909,119.5919 74.4981,157.8434 -63.3713,431.9843 -214.2833,431.9843 -1.5106,0 -23.1748,-0.8974 -22.6958,-9.675 5.5634,-100.7416 84.8144,-37.9231 5.0108,-209.3743 -81.5353,16.2454 -167.8971,147.1395 -123.3161,241.5953 13.1164,27.7592 45.9442,35.497 68.1978,35.497" style="fill:#000;fill-opacity:1;fill-rule:nonzero;stroke:none"/><path id="path68" d="m 5382.8243,2480.0755 c 323.2672,0 487.5167,-593.2023 343.0523,-899.1666 -27.596,-58.5026 -79.0667,-116.9725 -146.9329,-116.9725 -369.3219,0 -275.0388,734.1034 -482.9481,942.6788 19.0114,20.1928 37.2122,41.3269 53.9024,62.6033 140.4853,-164.8699 70.6664,-598.7622 370.722,-598.7622 69.1189,0 121.4002,60.5238 149.2909,119.5919 74.4981,157.8434 -63.3713,431.9843 -214.2833,431.9843 -1.5106,0 -23.1748,-0.8974 -22.6958,-9.675 5.5634,-100.7416 84.8144,-37.9231 5.0108,-209.3743 -81.5353,16.2454 -167.8971,147.1395 -123.3161,241.5953 13.1164,27.7592 45.9442,35.497 68.1978,35.497 z" style="fill:none;stroke:#000;stroke-width:29.799263;stroke-linecap:butt;stroke-linejoin:miter;stroke-miterlimit:3.86370993;stroke-opacity:1;stroke-dasharray:none"/><path id="path70" d="m 6186.6447,2486.6751 c 30.433,-2.8784 76.1929,-0.1568 102.3152,-8.1099 4.9002,-1.4812 1.179,-7.6102 2.0264,-12.4404 7.9214,-44.8183 20.4114,-87.3564 31.2066,-130.6642 42.1125,-168.7735 67.461,-342.0196 115.8,-509.2972 52.576,-182.1259 107.3996,-387.3668 43.7335,-615.9051 -6.2266,-22.3599 -14.5532,-45.0627 -25.3116,-67.8494 -72.177,-152.9256 -257.759,-298.49641 -420.0558,-298.49641 -19.7114,0 -40.9703,5.57082 -50.4023,18.39792 68.4926,43.53406 111.3419,88.18449 141.9591,152.99489 36.6964,77.7105 36.1437,150.4886 31.3172,217.4843 12.969,-7.5408 54.5287,-26.3802 71.8453,-26.3802 70.1874,0 130.4638,67.8786 158.6124,127.545 51.7287,109.574 42.8862,221.4025 33.9331,314.7164 -4.4949,46.7116 -10.7952,92.7994 -19.4903,137.5629 l -13.1901,64.8251 -1.658,7.0994 -1.6211,7.0811 c 7.8477,0 0.8106,-13.7646 1.1053,-20.6926 4.8266,-112.9668 2.8001,-270.6788 -57.8815,-399.249 -28.2224,-59.7394 -74.3508,-121.3321 -145.1645,-121.3321 -310.3719,0 -154.2648,880.258 -402.9971,1089.5009 13.7796,22.7612 26.0854,46.1754 36.4017,69.1336 147.1908,-177.7663 154.8912,-667.8082 371.5325,-667.8082 52.576,0 106.9206,49.28 129.2848,96.6338 96.2359,203.8728 -63.6292,441.3784 -133.3008,575.2494" style="fill:#000;fill-opacity:1;fill-rule:evenodd;stroke:none"/><path id="path72" d="m 6186.6447,2486.6751 c 30.433,-2.8784 76.1929,-0.1568 102.3152,-8.1099 4.9002,-1.4812 1.179,-7.6102 2.0264,-12.4404 7.9214,-44.8183 20.4114,-87.3564 31.2066,-130.6642 42.1125,-168.7735 67.461,-342.0196 115.8,-509.2972 52.576,-182.1259 107.3996,-387.3668 43.7335,-615.9051 -6.2266,-22.3599 -14.5532,-45.0627 -25.3116,-67.8494 -72.177,-152.9256 -257.759,-298.49641 -420.0558,-298.49641 -19.7114,0 -40.9703,5.57082 -50.4023,18.39792 68.4926,43.53406 111.3419,88.18449 141.9591,152.99489 36.6964,77.7105 36.1437,150.4886 31.3172,217.4843 12.969,-7.5408 54.5287,-26.3802 71.8453,-26.3802 70.1874,0 130.4638,67.8786 158.6124,127.545 51.7287,109.574 42.8862,221.4025 33.9331,314.7164 -4.4949,46.7116 -10.7952,92.7994 -19.4903,137.5629 l -13.1901,64.8251 -1.658,7.0994 -1.6211,7.0811 c 7.8477,0 0.8106,-13.7646 1.1053,-20.6926 4.8266,-112.9668 2.8001,-270.6788 -57.8815,-399.249 -28.2224,-59.7394 -74.3508,-121.3321 -145.1645,-121.3321 -310.3719,0 -154.2648,880.258 -402.9971,1089.5009 13.7796,22.7612 26.0854,46.1754 36.4017,69.1336 147.1908,-177.7663 154.8912,-667.8082 371.5325,-667.8082 52.576,0 106.9206,49.28 129.2848,96.6338 96.2359,203.8728 -63.6292,441.3784 -133.3008,575.2494 z" style="fill:none;stroke:#000;stroke-width:29.799263;stroke-linecap:butt;stroke-linejoin:miter;stroke-miterlimit:3.86370993;stroke-opacity:1;stroke-dasharray:none"/><path id="path74" d="m 2363.7468,3205.7479 c 213.4801,0 89.0587,-533.441 13.1421,-694.2905 -65.0108,-137.7053 -211.3653,-336.321 -384.8184,-336.321 -208.1083,0 -201.9185,233.0877 -119.079,408.5555 44.8462,94.9994 113.7698,201.4906 208.7273,279.7811 -24.3058,-81.7198 57.8558,-137.5374 24.6264,-207.9478 -22.6958,-48.0834 -69.6716,-100.6176 -94.0806,-152.3346 -39.4781,-83.6097 -24.3943,-232.0042 70.9795,-232.0042 85.3744,0 161.2357,105.7579 192.3355,171.6373 63.7139,134.9946 223.0227,710.9008 44.9494,710.9008 -205.0871,0 -558.4851,-499.7681 -632.4895,-656.5316 -132.0923,-279.8176 -36.3427,-624.4857 264.6266,-624.4857 203.3592,0 370.6262,195.5075 451.4209,366.6741 48.129,101.9492 74.336,203.3877 84.6559,299.0364 l 39.4781,7.2234 c 8.7209,-263.2948 287.2635,-699.2703 168.6892,-950.4385 -151.7521,-321.4728 -605.5052,-318.5944 -864.5905,-432.6848 -54.4588,127.3882 -128.2348,245.8272 -232.1158,336.2189 231.1062,77.7397 799.0197,208.2762 922.5053,469.8783 51.8981,109.9168 16.5649,292.1558 -43.3946,353.92 -10.202,-38.8498 -24.3206,-78.4511 -43.0593,-118.14 -105.7379,-223.9817 -332.1281,-397.6839 -565.5223,-397.6839 -324.9473,0 -462.7061,233.5 -309.7787,557.5046 91.7815,194.413 560.46,841.5322 802.7925,841.5322" style="fill:#000;fill-opacity:1;fill-rule:nonzero;stroke:none"/><path id="path76" d="m 2363.7468,3205.7479 c 213.4801,0 89.0587,-533.441 13.1421,-694.2905 -65.0108,-137.7053 -211.3653,-336.321 -384.8184,-336.321 -208.1083,0 -201.9185,233.0877 -119.079,408.5555 44.8462,94.9994 113.7698,201.4906 208.7273,279.7811 -24.3058,-81.7198 57.8558,-137.5374 24.6264,-207.9478 -22.6958,-48.0834 -69.6716,-100.6176 -94.0806,-152.3346 -39.4781,-83.6097 -24.3943,-232.0042 70.9795,-232.0042 85.3744,0 161.2357,105.7579 192.3355,171.6373 63.7139,134.9946 223.0227,710.9008 44.9494,710.9008 -205.0871,0 -558.4851,-499.7681 -632.4895,-656.5316 -132.0923,-279.8176 -36.3427,-624.4857 264.6266,-624.4857 203.3592,0 370.6262,195.5075 451.4209,366.6741 48.129,101.9492 74.336,203.3877 84.6559,299.0364 l 39.4781,7.2234 c 8.7209,-263.2948 287.2635,-699.2703 168.6892,-950.4385 -151.7521,-321.4728 -605.5052,-318.5944 -864.5905,-432.6848 -54.4588,127.3882 -128.2348,245.8272 -232.1158,336.2189 231.1062,77.7397 799.0197,208.2762 922.5053,469.8783 51.8981,109.9168 16.5649,292.1558 -43.3946,353.92 -10.202,-38.8498 -24.3206,-78.4511 -43.0593,-118.14 -105.7379,-223.9817 -332.1281,-397.6839 -565.5223,-397.6839 -324.9473,0 -462.7061,233.5 -309.7787,557.5046 91.7815,194.413 560.46,841.5322 802.7925,841.5322 z" style="fill:none;stroke:#000;stroke-width:357.58380127;stroke-linecap:butt;stroke-linejoin:round;stroke-miterlimit:3.8636899;stroke-opacity:1;stroke-dasharray:none"/><path id="path78" d="m 2918.9086,2433.6886 c 12.9101,-31.7212 50.2291,-211.3371 78.5804,-211.3371 61.2085,0 171.8283,166.548 201.5022,209.7866 54.433,-35.643 24.2359,-110.4751 125.1104,-110.4751 45.6679,0 68.6363,98.374 116.161,99.9719 1.6838,-39.7618 4.2297,-75.7441 -17.4455,-121.6751 -33.432,-70.8263 -118.0143,-166.7924 -201.1559,-166.7924 -59.5543,0 -142.4969,71.6982 -158.7893,71.6982 -17.7034,0 -50.1849,-8.2814 -60.549,-30.2108 -43.2914,-91.7342 72.4533,-397.9684 188.5369,-397.9684 62.0302,0 136.0493,45.5004 200.9275,73.577 -16.8929,-110.3473 -19.2398,-203.3876 3.1096,-298.3285 -59.1232,-37.4635 -128.3784,-53.2566 -183.9572,-53.2566 -285.2371,0 -127.9326,663.361 -390.9492,804.689 l 98.9181,130.3213" style="fill:#000;fill-opacity:1;fill-rule:nonzero;stroke:none"/><path id="path80" d="m 2918.9086,2433.6886 c 12.9101,-31.7212 50.2291,-211.3371 78.5804,-211.3371 61.2085,0 171.8283,166.548 201.5022,209.7866 54.433,-35.643 24.2359,-110.4751 125.1104,-110.4751 45.6679,0 68.6363,98.374 116.161,99.9719 1.6838,-39.7618 4.2297,-75.7441 -17.4455,-121.6751 -33.432,-70.8263 -118.0143,-166.7924 -201.1559,-166.7924 -59.5543,0 -142.4969,71.6982 -158.7893,71.6982 -17.7034,0 -50.1849,-8.2814 -60.549,-30.2108 -43.2914,-91.7342 72.4533,-397.9684 188.5369,-397.9684 62.0302,0 136.0493,45.5004 200.9275,73.577 -16.8929,-110.3473 -19.2398,-203.3876 3.1096,-298.3285 -59.1232,-37.4635 -128.3784,-53.2566 -183.9572,-53.2566 -285.2371,0 -127.9326,663.361 -390.9492,804.689 l 98.9181,130.3213 z" style="fill:none;stroke:#000;stroke-width:357.58380127;stroke-linecap:butt;stroke-linejoin:round;stroke-miterlimit:3.8636899;stroke-opacity:1;stroke-dasharray:none"/><path id="path82" d="m 4015.1837,2486.8466 c 215.5729,0 300.682,-387.7936 203.9671,-592.6916 -75.0507,-158.956 -208.0936,-274.1847 -378.5328,-274.1847 -301.0062,0 -263.2855,410.3213 -145.8645,659.0999 32.3857,68.5316 143.0275,217.9075 229.5735,217.9075 31.7962,0 58.1395,-10.1311 90.8567,-10.1311 z m -6.6687,-36.1975 c -33.9331,0 -63.7766,-16.7745 -79.5088,-50.1629 -33.0489,-69.9726 131.7164,-140.7843 108.0627,-190.8633 -14.8849,-31.5205 -71.5506,-61.0199 -100.1413,-61.0199 -142.8433,0 -141.6275,185.8579 -56.4815,306.9894 -52.9445,-33.7313 -87.6513,-85.2623 -110.1997,-133.0574 -83.7091,-177.2957 -17.2798,-421.1966 173.7552,-421.1966 105.5574,0 227.1418,94.8388 274.3755,194.9493 58.1395,123.0978 -90.5251,354.3614 -209.8621,354.3614" style="fill:#000;fill-opacity:1;fill-rule:evenodd;stroke:none"/><path id="path84" d="m 4015.1837,2486.8466 c 215.5729,0 300.682,-387.7936 203.9671,-592.6916 -75.0507,-158.956 -208.0936,-274.1847 -378.5328,-274.1847 -301.0062,0 -263.2855,410.3213 -145.8645,659.0999 32.3857,68.5316 143.0275,217.9075 229.5735,217.9075 31.7962,0 58.1395,-10.1311 90.8567,-10.1311 z" style="fill:none;stroke:#000;stroke-width:357.58380127;stroke-linecap:butt;stroke-linejoin:round;stroke-miterlimit:3.8636899;stroke-opacity:1;stroke-dasharray:none"/><path id="path86" d="m 4008.515,2450.6491 c -33.9331,0 -63.7766,-16.7745 -79.5088,-50.1629 -33.0489,-69.9726 131.7164,-140.7843 108.0627,-190.8633 -14.8849,-31.5205 -71.5506,-61.0199 -100.1413,-61.0199 -142.8433,0 -141.6275,185.8579 -56.4815,306.9894 -52.9445,-33.7313 -87.6513,-85.2623 -110.1997,-133.0574 -83.7091,-177.2957 -17.2798,-421.1966 173.7552,-421.1966 105.5574,0 227.1418,94.8388 274.3755,194.9493 58.1395,123.0978 -90.5251,354.3614 -209.8621,354.3614 z" style="fill:none;stroke:#000;stroke-width:357.58380127;stroke-linecap:butt;stroke-linejoin:round;stroke-miterlimit:3.8636899;stroke-opacity:1;stroke-dasharray:none"/><path id="path88" d="m 4994.8963,1848.4247 c -56.3341,-119.3219 -161.302,-184.8328 -279.4968,-184.8328 -375.1064,0 -449.5308,342.0451 -286.9761,686.4323 38.3912,81.2857 101.394,171.2104 197.5931,171.2104 301.3452,0 511.2809,-371.1213 368.8798,-672.8099 z m -299.2819,629.6005 c -27.6697,0 -51.9497,-10.0034 -65.2135,-38.1201 -29.1802,-61.8371 129.5795,-116.9725 129.8006,-180.8745 -16.5797,-19.6347 -63.0028,-41.6115 -83.2301,-41.6115 -114.3262,0 -200.6143,154.9942 -103.0151,270.1827 -39.6071,-25.1544 -63.1134,-62.8039 -79.8405,-98.2025 -98.9623,-209.6297 42.1125,-421.5687 247.6638,-421.5687 85.5512,0 195.8246,47.6128 240.2582,141.7694 62.8923,133.2581 -161.1178,368.4252 -286.4234,368.4252" style="fill:#000;fill-opacity:1;fill-rule:evenodd;stroke:none"/><path id="path90" d="m 4994.8963,1848.4247 c -56.3341,-119.3219 -161.302,-184.8328 -279.4968,-184.8328 -375.1064,0 -449.5308,342.0451 -286.9761,686.4323 38.3912,81.2857 101.394,171.2104 197.5931,171.2104 301.3452,0 511.2809,-371.1213 368.8798,-672.8099 z" style="fill:none;stroke:#000;stroke-width:357.58380127;stroke-linecap:butt;stroke-linejoin:round;stroke-miterlimit:3.8636899;stroke-opacity:1;stroke-dasharray:none"/><path id="path92" d="m 4695.6144,2478.0252 c -27.6697,0 -51.9497,-10.0034 -65.2135,-38.1201 -29.1802,-61.8371 129.5795,-116.9725 129.8006,-180.8745 -16.5797,-19.6347 -63.0028,-41.6115 -83.2301,-41.6115 -114.3262,0 -200.6143,154.9942 -103.0151,270.1827 -39.6071,-25.1544 -63.1134,-62.8039 -79.8405,-98.2025 -98.9623,-209.6297 42.1125,-421.5687 247.6638,-421.5687 85.5512,0 195.8246,47.6128 240.2582,141.7694 62.8923,133.2581 -161.1178,368.4252 -286.4234,368.4252 z" style="fill:none;stroke:#000;stroke-width:357.58380127;stroke-linecap:butt;stroke-linejoin:round;stroke-miterlimit:3.8636899;stroke-opacity:1;stroke-dasharray:none"/><path id="path94" d="m 5382.8243,2480.0755 c 323.2672,0 487.5167,-593.2023 343.0523,-899.1666 -27.596,-58.5026 -79.0667,-116.9725 -146.9329,-116.9725 -369.3219,0 -275.0388,734.1034 -482.9481,942.6788 19.0114,20.1928 37.2122,41.3269 53.9024,62.6033 140.4853,-164.8699 70.6664,-598.7622 370.722,-598.7622 69.1189,0 121.4002,60.5238 149.2909,119.5919 74.4981,157.8434 -63.3713,431.9843 -214.2833,431.9843 -1.5106,0 -23.1748,-0.8974 -22.6958,-9.675 5.5634,-100.7416 84.8144,-37.9231 5.0108,-209.3743 -81.5353,16.2454 -167.8971,147.1395 -123.3161,241.5953 13.1164,27.7592 45.9442,35.497 68.1978,35.497" style="fill:#000;fill-opacity:1;fill-rule:nonzero;stroke:none"/><path id="path96" d="m 5382.8243,2480.0755 c 323.2672,0 487.5167,-593.2023 343.0523,-899.1666 -27.596,-58.5026 -79.0667,-116.9725 -146.9329,-116.9725 -369.3219,0 -275.0388,734.1034 -482.9481,942.6788 19.0114,20.1928 37.2122,41.3269 53.9024,62.6033 140.4853,-164.8699 70.6664,-598.7622 370.722,-598.7622 69.1189,0 121.4002,60.5238 149.2909,119.5919 74.4981,157.8434 -63.3713,431.9843 -214.2833,431.9843 -1.5106,0 -23.1748,-0.8974 -22.6958,-9.675 5.5634,-100.7416 84.8144,-37.9231 5.0108,-209.3743 -81.5353,16.2454 -167.8971,147.1395 -123.3161,241.5953 13.1164,27.7592 45.9442,35.497 68.1978,35.497 z" style="fill:none;stroke:#000;stroke-width:357.58380127;stroke-linecap:butt;stroke-linejoin:round;stroke-miterlimit:3.8636899;stroke-opacity:1;stroke-dasharray:none"/><path id="path98" d="m 6186.6447,2486.6751 c 30.433,-2.8784 76.1929,-0.1568 102.3152,-8.1099 4.9002,-1.4812 1.179,-7.6102 2.0264,-12.4404 7.9214,-44.8183 20.4114,-87.3564 31.2066,-130.6642 42.1125,-168.7735 67.461,-342.0196 115.8,-509.2972 52.576,-182.1259 107.3996,-387.3668 43.7335,-615.9051 -6.2266,-22.3599 -14.5532,-45.0627 -25.3116,-67.8494 -72.177,-152.9256 -257.759,-298.49641 -420.0558,-298.49641 -19.7114,0 -40.9703,5.57082 -50.4023,18.39792 68.4926,43.53406 111.3419,88.18449 141.9591,152.99489 36.6964,77.7105 36.1437,150.4886 31.3172,217.4843 12.969,-7.5408 54.5287,-26.3802 71.8453,-26.3802 70.1874,0 130.4638,67.8786 158.6124,127.545 51.7287,109.574 42.8862,221.4025 33.9331,314.7164 -4.4949,46.7116 -10.7952,92.7994 -19.4903,137.5629 l -13.1901,64.8251 -1.658,7.0994 -1.6211,7.0811 c 7.8477,0 0.8106,-13.7646 1.1053,-20.6926 4.8266,-112.9668 2.8001,-270.6788 -57.8815,-399.249 -28.2224,-59.7394 -74.3508,-121.3321 -145.1645,-121.3321 -310.3719,0 -154.2648,880.258 -402.9971,1089.5009 13.7796,22.7612 26.0854,46.1754 36.4017,69.1336 147.1908,-177.7663 154.8912,-667.8082 371.5325,-667.8082 52.576,0 106.9206,49.28 129.2848,96.6338 96.2359,203.8728 -63.6292,441.3784 -133.3008,575.2494" style="fill:#000;fill-opacity:1;fill-rule:evenodd;stroke:none"/><path id="path100" d="m 6186.6447,2486.6751 c 30.433,-2.8784 76.1929,-0.1568 102.3152,-8.1099 4.9002,-1.4812 1.179,-7.6102 2.0264,-12.4404 7.9214,-44.8183 20.4114,-87.3564 31.2066,-130.6642 42.1125,-168.7735 67.461,-342.0196 115.8,-509.2972 52.576,-182.1259 107.3996,-387.3668 43.7335,-615.9051 -6.2266,-22.3599 -14.5532,-45.0627 -25.3116,-67.8494 -72.177,-152.9256 -257.759,-298.49641 -420.0558,-298.49641 -19.7114,0 -40.9703,5.57082 -50.4023,18.39792 68.4926,43.53406 111.3419,88.18449 141.9591,152.99489 36.6964,77.7105 36.1437,150.4886 31.3172,217.4843 12.969,-7.5408 54.5287,-26.3802 71.8453,-26.3802 70.1874,0 130.4638,67.8786 158.6124,127.545 51.7287,109.574 42.8862,221.4025 33.9331,314.7164 -4.4949,46.7116 -10.7952,92.7994 -19.4903,137.5629 l -13.1901,64.8251 -1.658,7.0994 -1.6211,7.0811 c 7.8477,0 0.8106,-13.7646 1.1053,-20.6926 4.8266,-112.9668 2.8001,-270.6788 -57.8815,-399.249 -28.2224,-59.7394 -74.3508,-121.3321 -145.1645,-121.3321 -310.3719,0 -154.2648,880.258 -402.9971,1089.5009 13.7796,22.7612 26.0854,46.1754 36.4017,69.1336 147.1908,-177.7663 154.8912,-667.8082 371.5325,-667.8082 52.576,0 106.9206,49.28 129.2848,96.6338 96.2359,203.8728 -63.6292,441.3784 -133.3008,575.2494 z" style="fill:none;stroke:#000;stroke-width:357.58380127;stroke-linecap:butt;stroke-linejoin:round;stroke-miterlimit:3.8636899;stroke-opacity:1;stroke-dasharray:none"/><path id="path102" d="m 2363.7468,3205.7479 c 213.4801,0 89.0587,-533.441 13.1421,-694.2905 -65.0108,-137.7053 -211.3653,-336.321 -384.8184,-336.321 -208.1083,0 -201.9185,233.0877 -119.079,408.5555 44.8462,94.9994 113.7698,201.4906 208.7273,279.7811 -24.3058,-81.7198 57.8558,-137.5374 24.6264,-207.9478 -22.6958,-48.0834 -69.6716,-100.6176 -94.0806,-152.3346 -39.4781,-83.6097 -24.3943,-232.0042 70.9795,-232.0042 85.3744,0 161.2357,105.7579 192.3355,171.6373 63.7139,134.9946 223.0227,710.9008 44.9494,710.9008 -205.0871,0 -558.4851,-499.7681 -632.4895,-656.5316 -132.0923,-279.8176 -36.3427,-624.4857 264.6266,-624.4857 203.3592,0 370.6262,195.5075 451.4209,366.6741 48.129,101.9492 74.336,203.3877 84.6559,299.0364 l 39.4781,7.2234 c 8.7209,-263.2948 287.2635,-699.2703 168.6892,-950.4385 -151.7521,-321.4728 -605.5052,-318.5944 -864.5905,-432.6848 -54.4588,127.3882 -128.2348,245.8272 -232.1158,336.2189 231.1062,77.7397 799.0197,208.2762 922.5053,469.8783 51.8981,109.9168 16.5649,292.1558 -43.3946,353.92 -10.202,-38.8498 -24.3206,-78.4511 -43.0593,-118.14 -105.7379,-223.9817 -332.1281,-397.6839 -565.5223,-397.6839 -324.9473,0 -462.7061,233.5 -309.7787,557.5046 91.7815,194.413 560.46,841.5322 802.7925,841.5322" style="fill:#fff;fill-opacity:1;fill-rule:nonzero;stroke:none"/><path id="path104" d="m 2918.9086,2433.6886 c 12.9101,-31.7212 50.2291,-211.3371 78.5804,-211.3371 61.2085,0 171.8283,166.548 201.5022,209.7866 54.433,-35.643 24.2359,-110.4751 125.1104,-110.4751 45.6679,0 68.6363,98.374 116.161,99.9719 1.6838,-39.7618 4.2297,-75.7441 -17.4455,-121.6751 -33.432,-70.8263 -118.0143,-166.7924 -201.1559,-166.7924 -59.5543,0 -142.4969,71.6982 -158.7893,71.6982 -17.7034,0 -50.1849,-8.2814 -60.549,-30.2108 -43.2914,-91.7342 72.4533,-397.9684 188.5369,-397.9684 62.0302,0 136.0493,45.5004 200.9275,73.577 -16.8929,-110.3473 -19.2398,-203.3876 3.1096,-298.3285 -59.1232,-37.4635 -128.3784,-53.2566 -183.9572,-53.2566 -285.2371,0 -127.9326,663.361 -390.9492,804.689 l 98.9181,130.3213" style="fill:#fff;fill-opacity:1;fill-rule:nonzero;stroke:none"/><path id="path106" d="m 4015.1837,2486.8466 c 215.5729,0 300.682,-387.7936 203.9671,-592.6916 -75.0507,-158.956 -208.0936,-274.1847 -378.5328,-274.1847 -301.0062,0 -263.2855,410.3213 -145.8645,659.0999 32.3857,68.5316 143.0275,217.9075 229.5735,217.9075 31.7962,0 58.1395,-10.1311 90.8567,-10.1311 z m -6.6687,-36.1975 c -33.9331,0 -63.7766,-16.7745 -79.5088,-50.1629 -33.0489,-69.9726 131.7164,-140.7843 108.0627,-190.8633 -14.8849,-31.5205 -71.5506,-61.0199 -100.1413,-61.0199 -142.8433,0 -141.6275,185.8579 -56.4815,306.9894 -52.9445,-33.7313 -87.6513,-85.2623 -110.1997,-133.0574 -83.7091,-177.2957 -17.2798,-421.1966 173.7552,-421.1966 105.5574,0 227.1418,94.8388 274.3755,194.9493 58.1395,123.0978 -90.5251,354.3614 -209.8621,354.3614" style="fill:#fff;fill-opacity:1;fill-rule:evenodd;stroke:none"/><path id="path108" d="m 4994.8963,1848.4247 c -56.3341,-119.3219 -161.302,-184.8328 -279.4968,-184.8328 -375.1064,0 -449.5308,342.0451 -286.9761,686.4323 38.3912,81.2857 101.394,171.2104 197.5931,171.2104 301.3452,0 511.2809,-371.1213 368.8798,-672.8099 z m -299.2819,629.6005 c -27.6697,0 -51.9497,-10.0034 -65.2135,-38.1201 -29.1802,-61.8371 129.5795,-116.9725 129.8006,-180.8745 -16.5797,-19.6347 -63.0028,-41.6115 -83.2301,-41.6115 -114.3262,0 -200.6143,154.9942 -103.0151,270.1827 -39.6071,-25.1544 -63.1134,-62.8039 -79.8405,-98.2025 -98.9623,-209.6297 42.1125,-421.5687 247.6638,-421.5687 85.5512,0 195.8246,47.6128 240.2582,141.7694 62.8923,133.2581 -161.1178,368.4252 -286.4234,368.4252" style="fill:#fff;fill-opacity:1;fill-rule:evenodd;stroke:none"/><path id="path110" d="m 5382.8243,2480.0755 c 323.2672,0 487.5167,-593.2023 343.0523,-899.1666 -27.596,-58.5026 -79.0667,-116.9725 -146.9329,-116.9725 -369.3219,0 -275.0388,734.1034 -482.9481,942.6788 19.0114,20.1928 37.2122,41.3269 53.9024,62.6033 140.4853,-164.8699 70.6664,-598.7622 370.722,-598.7622 69.1189,0 121.4002,60.5238 149.2909,119.5919 74.4981,157.8434 -63.3713,431.9843 -214.2833,431.9843 -1.5106,0 -23.1748,-0.8974 -22.6958,-9.675 5.5634,-100.7416 84.8144,-37.9231 5.0108,-209.3743 -81.5353,16.2454 -167.8971,147.1395 -123.3161,241.5953 13.1164,27.7592 45.9442,35.497 68.1978,35.497" style="fill:#fff;fill-opacity:1;fill-rule:nonzero;stroke:none"/><path id="path112" d="m 6186.6447,2486.6751 c 30.433,-2.8784 76.1929,-0.1568 102.3152,-8.1099 4.9002,-1.4812 1.179,-7.6102 2.0264,-12.4404 7.9214,-44.8183 20.4114,-87.3564 31.2066,-130.6642 42.1125,-168.7735 67.461,-342.0196 115.8,-509.2972 52.576,-182.1259 107.3996,-387.3668 43.7335,-615.9051 -6.2266,-22.3599 -14.5532,-45.0627 -25.3116,-67.8494 -242.0267,-464.90213 -760.0132,-339.59712 -922.2732,-339.59712 -19.7114,0 -41.0071,5.58905 -50.4022,18.4125 68.4557,43.53772 111.3418,88.1699 141.9222,152.98397 36.6963,77.71045 36.1437,150.48855 31.3172,217.49525 12.969,-7.5518 54.5656,-26.3802 71.8453,-26.3802 70.1874,0 461.4313,-201.01994 660.8666,168.6311 51.7287,109.574 42.8862,221.4025 33.9331,314.7164 -4.4949,46.7116 -10.7952,92.7994 -19.4903,137.5629 l -13.1901,64.8251 -1.658,7.0994 -1.6211,7.0811 c 7.8477,0 0.8106,-13.7646 1.1053,-20.6926 4.8266,-112.9668 2.8001,-270.6788 -57.8815,-399.249 -28.2224,-59.7394 -74.3508,-121.3321 -145.1645,-121.3321 -310.3719,0 -154.2648,880.258 -402.9971,1089.5009 13.7796,22.7612 26.0854,46.1754 36.4017,69.1336 147.1908,-177.7663 154.8912,-667.8082 371.5325,-667.8082 52.576,0 106.9206,49.28 129.2848,96.6338 96.2359,203.8728 -63.6292,441.3784 -133.3008,575.2494" style="fill:#fff;fill-opacity:1;fill-rule:evenodd;stroke:none"/><path id="path212" d="M 6472.2111,0 4000.0333,960.08914 1527.9586,0.2447157 2504.0617,1530.4009 0,2467.4174 3075.4297,2453.0486 3999.9228,3992 4924.5044,2452.9646 8000,2467.0484 5495.9388,1530.2584 6472.2111,0" style="fill:#000;fill-opacity:1;fill-rule:nonzero;stroke:none"/><path id="path214" d="M 6141.4743,277.229 4004.278,1105.6131 1867.1923,277.40047 2711.0287,1597.7089 546.28434,2406.1993 3204.9636,2393.8173 4004.2043,3721.714 4803.4929,2393.7443 7462.2127,2405.9148 5297.4941,1597.5958 6141.4743,277.229" style="fill:#619cbc;fill-opacity:1;fill-rule:nonzero;stroke:none"/><path id="path216" d="m 2363.7468,3205.7479 c 213.4801,0 89.0587,-533.441 13.1421,-694.2905 -65.0108,-137.7053 -211.3653,-336.321 -384.8184,-336.321 -208.1083,0 -201.9185,233.0877 -119.079,408.5555 44.8462,94.9994 113.7698,201.4906 208.7273,279.7811 -24.3058,-81.7198 57.8558,-137.5374 24.6264,-207.9478 -22.6958,-48.0834 -69.6716,-100.6176 -94.0806,-152.3346 -39.4781,-83.6097 -24.3943,-232.0042 70.9795,-232.0042 85.3744,0 161.2357,105.7579 192.3355,171.6373 63.7139,134.9946 223.0227,710.9008 44.9494,710.9008 -205.0871,0 -558.4851,-499.7681 -632.4895,-656.5316 -132.0923,-279.8176 -36.3427,-624.4857 264.6266,-624.4857 203.3592,0 370.6262,195.5075 451.4209,366.6741 48.129,101.9492 74.336,203.3877 84.6559,299.0364 l 39.4781,7.2234 c 8.7209,-263.2948 287.2635,-699.2703 168.6892,-950.4385 -151.7521,-321.4728 -605.5052,-318.5944 -864.5905,-432.6848 -54.4588,127.3882 -128.2348,245.8272 -232.1158,336.2189 231.1062,77.7397 799.0197,208.2762 922.5053,469.8783 51.8981,109.9168 16.5649,292.1558 -43.3946,353.92 -10.202,-38.8498 -24.3206,-78.4511 -43.0593,-118.14 -105.7379,-223.9817 -332.1281,-397.6839 -565.5223,-397.6839 -324.9473,0 -462.7061,233.5 -309.7787,557.5046 91.7815,194.413 560.46,841.5322 802.7925,841.5322" style="fill:#000;fill-opacity:1;fill-rule:nonzero;stroke:none"/><path id="path218" d="m 2363.7468,3205.7479 c 213.4801,0 89.0587,-533.441 13.1421,-694.2905 -65.0108,-137.7053 -211.3653,-336.321 -384.8184,-336.321 -208.1083,0 -201.9185,233.0877 -119.079,408.5555 44.8462,94.9994 113.7698,201.4906 208.7273,279.7811 -24.3058,-81.7198 57.8558,-137.5374 24.6264,-207.9478 -22.6958,-48.0834 -69.6716,-100.6176 -94.0806,-152.3346 -39.4781,-83.6097 -24.3943,-232.0042 70.9795,-232.0042 85.3744,0 161.2357,105.7579 192.3355,171.6373 63.7139,134.9946 223.0227,710.9008 44.9494,710.9008 -205.0871,0 -558.4851,-499.7681 -632.4895,-656.5316 -132.0923,-279.8176 -36.3427,-624.4857 264.6266,-624.4857 203.3592,0 370.6262,195.5075 451.4209,366.6741 48.129,101.9492 74.336,203.3877 84.6559,299.0364 l 39.4781,7.2234 c 8.7209,-263.2948 287.2635,-699.2703 168.6892,-950.4385 -151.7521,-321.4728 -605.5052,-318.5944 -864.5905,-432.6848 -54.4588,127.3882 -128.2348,245.8272 -232.1158,336.2189 231.1062,77.7397 799.0197,208.2762 922.5053,469.8783 51.8981,109.9168 16.5649,292.1558 -43.3946,353.92 -10.202,-38.8498 -24.3206,-78.4511 -43.0593,-118.14 -105.7379,-223.9817 -332.1281,-397.6839 -565.5223,-397.6839 -324.9473,0 -462.7061,233.5 -309.7787,557.5046 91.7815,194.413 560.46,841.5322 802.7925,841.5322 z" style="fill:none;stroke:#000;stroke-width:357.58380127;stroke-linecap:butt;stroke-linejoin:round;stroke-miterlimit:3.8636899;stroke-opacity:1;stroke-dasharray:none"/><path id="path220" d="m 2918.9086,2433.6886 c 12.9101,-31.7212 50.2291,-211.3371 78.5804,-211.3371 61.2085,0 171.8283,166.548 201.5022,209.7866 54.433,-35.643 24.2359,-110.4751 125.1104,-110.4751 45.6679,0 68.6363,98.374 116.161,99.9719 1.6838,-39.7618 4.2297,-75.7441 -17.4455,-121.6751 -33.432,-70.8263 -118.0143,-166.7924 -201.1559,-166.7924 -59.5543,0 -142.4969,71.6982 -158.7893,71.6982 -17.7034,0 -50.1849,-8.2814 -60.549,-30.2108 -43.2914,-91.7342 72.4533,-397.9684 188.5369,-397.9684 62.0302,0 136.0493,45.5004 200.9275,73.577 -16.8929,-110.3473 -19.2398,-203.3876 3.1096,-298.3285 -59.1232,-37.4635 -128.3784,-53.2566 -183.9572,-53.2566 -285.2371,0 -127.9326,663.361 -390.9492,804.689 l 98.9181,130.3213" style="fill:#000;fill-opacity:1;fill-rule:nonzero;stroke:none"/><path id="path222" d="m 2918.9086,2433.6886 c 12.9101,-31.7212 50.2291,-211.3371 78.5804,-211.3371 61.2085,0 171.8283,166.548 201.5022,209.7866 54.433,-35.643 24.2359,-110.4751 125.1104,-110.4751 45.6679,0 68.6363,98.374 116.161,99.9719 1.6838,-39.7618 4.2297,-75.7441 -17.4455,-121.6751 -33.432,-70.8263 -118.0143,-166.7924 -201.1559,-166.7924 -59.5543,0 -142.4969,71.6982 -158.7893,71.6982 -17.7034,0 -50.1849,-8.2814 -60.549,-30.2108 -43.2914,-91.7342 72.4533,-397.9684 188.5369,-397.9684 62.0302,0 136.0493,45.5004 200.9275,73.577 -16.8929,-110.3473 -19.2398,-203.3876 3.1096,-298.3285 -59.1232,-37.4635 -128.3784,-53.2566 -183.9572,-53.2566 -285.2371,0 -127.9326,663.361 -390.9492,804.689 l 98.9181,130.3213 z" style="fill:none;stroke:#000;stroke-width:357.58380127;stroke-linecap:butt;stroke-linejoin:round;stroke-miterlimit:3.8636899;stroke-opacity:1;stroke-dasharray:none"/><path id="path224" d="m 4015.1837,2486.8466 c 215.5729,0 300.682,-387.7936 203.9671,-592.6916 -75.0507,-158.956 -208.0936,-274.1847 -378.5328,-274.1847 -301.0062,0 -263.2855,410.3213 -145.8645,659.0999 32.3857,68.5316 143.0275,217.9075 229.5735,217.9075 31.7962,0 58.1395,-10.1311 90.8567,-10.1311 z m -6.6687,-36.1975 c -33.9331,0 -63.7766,-16.7745 -79.5088,-50.1629 -33.0489,-69.9726 131.7164,-140.7843 108.0627,-190.8633 -14.8849,-31.5205 -71.5506,-61.0199 -100.1413,-61.0199 -142.8433,0 -141.6275,185.8579 -56.4815,306.9894 -52.9445,-33.7313 -87.6513,-85.2623 -110.1997,-133.0574 -83.7091,-177.2957 -17.2798,-421.1966 173.7552,-421.1966 105.5574,0 227.1418,94.8388 274.3755,194.9493 58.1395,123.0978 -90.5251,354.3614 -209.8621,354.3614" style="fill:#000;fill-opacity:1;fill-rule:evenodd;stroke:none"/><path id="path226" d="m 4015.1837,2486.8466 c 215.5729,0 300.682,-387.7936 203.9671,-592.6916 -75.0507,-158.956 -208.0936,-274.1847 -378.5328,-274.1847 -301.0062,0 -263.2855,410.3213 -145.8645,659.0999 32.3857,68.5316 143.0275,217.9075 229.5735,217.9075 31.7962,0 58.1395,-10.1311 90.8567,-10.1311 z" style="fill:none;stroke:#000;stroke-width:357.58380127;stroke-linecap:butt;stroke-linejoin:round;stroke-miterlimit:3.8636899;stroke-opacity:1;stroke-dasharray:none"/><path id="path228" d="m 4008.515,2450.6491 c -33.9331,0 -63.7766,-16.7745 -79.5088,-50.1629 -33.0489,-69.9726 131.7164,-140.7843 108.0627,-190.8633 -14.8849,-31.5205 -71.5506,-61.0199 -100.1413,-61.0199 -142.8433,0 -141.6275,185.8579 -56.4815,306.9894 -52.9445,-33.7313 -87.6513,-85.2623 -110.1997,-133.0574 -83.7091,-177.2957 -17.2798,-421.1966 173.7552,-421.1966 105.5574,0 227.1418,94.8388 274.3755,194.9493 58.1395,123.0978 -90.5251,354.3614 -209.8621,354.3614 z" style="fill:none;stroke:#000;stroke-width:357.58380127;stroke-linecap:butt;stroke-linejoin:round;stroke-miterlimit:3.8636899;stroke-opacity:1;stroke-dasharray:none"/><path id="path230" d="m 4994.8963,1848.4247 c -56.3341,-119.3219 -161.302,-184.8328 -279.4968,-184.8328 -375.1064,0 -449.5308,342.0451 -286.9761,686.4323 38.3912,81.2857 101.394,171.2104 197.5931,171.2104 301.3452,0 511.2809,-371.1213 368.8798,-672.8099 z m -299.2819,629.6005 c -27.6697,0 -51.9497,-10.0034 -65.2135,-38.1201 -29.1802,-61.8371 129.5795,-116.9725 129.8006,-180.8745 -16.5797,-19.6347 -63.0028,-41.6115 -83.2301,-41.6115 -114.3262,0 -200.6143,154.9942 -103.0151,270.1827 -39.6071,-25.1544 -63.1134,-62.8039 -79.8405,-98.2025 -98.9623,-209.6297 42.1125,-421.5687 247.6638,-421.5687 85.5512,0 195.8246,47.6128 240.2582,141.7694 62.8923,133.2581 -161.1178,368.4252 -286.4234,368.4252" style="fill:#000;fill-opacity:1;fill-rule:evenodd;stroke:none"/><path id="path232" d="m 4994.8963,1848.4247 c -56.3341,-119.3219 -161.302,-184.8328 -279.4968,-184.8328 -375.1064,0 -449.5308,342.0451 -286.9761,686.4323 38.3912,81.2857 101.394,171.2104 197.5931,171.2104 301.3452,0 511.2809,-371.1213 368.8798,-672.8099 z" style="fill:none;stroke:#000;stroke-width:357.58380127;stroke-linecap:butt;stroke-linejoin:round;stroke-miterlimit:3.8636899;stroke-opacity:1;stroke-dasharray:none"/><path id="path234" d="m 4695.6144,2478.0252 c -27.6697,0 -51.9497,-10.0034 -65.2135,-38.1201 -29.1802,-61.8371 129.5795,-116.9725 129.8006,-180.8745 -16.5797,-19.6347 -63.0028,-41.6115 -83.2301,-41.6115 -114.3262,0 -200.6143,154.9942 -103.0151,270.1827 -39.6071,-25.1544 -63.1134,-62.8039 -79.8405,-98.2025 -98.9623,-209.6297 42.1125,-421.5687 247.6638,-421.5687 85.5512,0 195.8246,47.6128 240.2582,141.7694 62.8923,133.2581 -161.1178,368.4252 -286.4234,368.4252 z" style="fill:none;stroke:#000;stroke-width:357.58380127;stroke-linecap:butt;stroke-linejoin:round;stroke-miterlimit:3.8636899;stroke-opacity:1;stroke-dasharray:none"/><path id="path236" d="m 5382.8243,2480.0755 c 323.2672,0 487.5167,-593.2023 343.0523,-899.1666 -27.596,-58.5026 -79.0667,-116.9725 -146.9329,-116.9725 -369.3219,0 -275.0388,734.1034 -482.9481,942.6788 19.0114,20.1928 37.2122,41.3269 53.9024,62.6033 140.4853,-164.8699 70.6664,-598.7622 370.722,-598.7622 69.1189,0 121.4002,60.5238 149.2909,119.5919 74.4981,157.8434 -63.3713,431.9843 -214.2833,431.9843 -1.5106,0 -23.1748,-0.8974 -22.6958,-9.675 5.5634,-100.7416 84.8144,-37.9231 5.0108,-209.3743 -81.5353,16.2454 -167.8971,147.1395 -123.3161,241.5953 13.1164,27.7592 45.9442,35.497 68.1978,35.497" style="fill:#000;fill-opacity:1;fill-rule:nonzero;stroke:none"/><path id="path238" d="m 5382.8243,2480.0755 c 323.2672,0 487.5167,-593.2023 343.0523,-899.1666 -27.596,-58.5026 -79.0667,-116.9725 -146.9329,-116.9725 -369.3219,0 -275.0388,734.1034 -482.9481,942.6788 19.0114,20.1928 37.2122,41.3269 53.9024,62.6033 140.4853,-164.8699 70.6664,-598.7622 370.722,-598.7622 69.1189,0 121.4002,60.5238 149.2909,119.5919 74.4981,157.8434 -63.3713,431.9843 -214.2833,431.9843 -1.5106,0 -23.1748,-0.8974 -22.6958,-9.675 5.5634,-100.7416 84.8144,-37.9231 5.0108,-209.3743 -81.5353,16.2454 -167.8971,147.1395 -123.3161,241.5953 13.1164,27.7592 45.9442,35.497 68.1978,35.497 z" style="fill:none;stroke:#000;stroke-width:357.58380127;stroke-linecap:butt;stroke-linejoin:round;stroke-miterlimit:3.8636899;stroke-opacity:1;stroke-dasharray:none"/><path id="path240" d="m 6186.6447,2486.6751 c 30.433,-2.8784 76.1929,-0.1568 102.3152,-8.1099 4.9002,-1.4812 1.179,-7.6102 2.0264,-12.4404 7.9214,-44.8183 20.4114,-87.3564 31.2066,-130.6642 42.1125,-168.7735 67.461,-342.0196 115.8,-509.2972 52.576,-182.1259 107.3996,-387.3668 43.7335,-615.9051 -6.2266,-22.3599 -14.5532,-45.0627 -25.3116,-67.8494 -72.177,-152.9256 -693.7313,-329.12312 -855.9912,-329.12312 -19.7114,0 -41.0071,5.58906 -50.4023,18.41251 68.4557,43.53772 111.3419,88.1699 141.959,152.99856 36.6596,77.69585 36.1069,150.47395 31.2804,217.48065 12.969,-7.5372 490.501,4.2319 507.8176,4.2319 70.1874,0 130.4638,67.8786 158.6124,127.545 51.7287,109.574 42.8862,221.4025 33.9331,314.7164 -4.4949,46.7116 -10.7952,92.7994 -19.4903,137.5629 l -13.1901,64.8251 -1.658,7.0994 -1.6211,7.0811 c 7.8477,0 0.8106,-13.7646 1.1053,-20.6926 4.8266,-112.9668 2.8001,-270.6788 -57.8815,-399.249 -28.2224,-59.7394 -74.3508,-121.3321 -145.1645,-121.3321 -310.3719,0 -154.2648,880.258 -402.9971,1089.5009 13.7796,22.7612 26.0854,46.1754 36.4017,69.1336 147.1908,-177.7663 154.8912,-667.8082 371.5325,-667.8082 52.576,0 106.9206,49.28 129.2848,96.6338 96.2359,203.8728 -63.6292,441.3784 -133.3008,575.2494" style="fill:#000;fill-opacity:1;fill-rule:evenodd;stroke:none"/><path id="path242" d="m 6186.6447,2486.6751 c 30.433,-2.8784 76.1929,-0.1568 102.3152,-8.1099 4.9002,-1.4812 1.179,-7.6102 2.0264,-12.4404 7.9214,-44.8183 20.4114,-87.3564 31.2066,-130.6642 42.1125,-168.7735 67.461,-342.0196 115.8,-509.2972 52.576,-182.1259 107.3996,-387.3668 43.7335,-615.9051 -6.2266,-22.3599 -14.5532,-45.0627 -25.3116,-67.8494 -72.177,-152.9256 -693.7313,-329.12312 -855.9912,-329.12312 -19.7114,0 -41.0071,5.58906 -50.4023,18.41251 68.4557,43.53772 111.3419,88.1699 141.959,152.99856 36.6596,77.69585 36.1069,150.47395 31.2804,217.48065 12.969,-7.5372 490.501,4.2319 507.8176,4.2319 70.1874,0 130.4638,67.8786 158.6124,127.545 51.7287,109.574 42.8862,221.4025 33.9331,314.7164 -4.4949,46.7116 -10.7952,92.7994 -19.4903,137.5629 l -13.1901,64.8251 -1.658,7.0994 -1.6211,7.0811 c 7.8477,0 0.8106,-13.7646 1.1053,-20.6926 4.8266,-112.9668 2.8001,-270.6788 -57.8815,-399.249 -28.2224,-59.7394 -74.3508,-121.3321 -145.1645,-121.3321 -310.3719,0 -154.2648,880.258 -402.9971,1089.5009 13.7796,22.7612 26.0854,46.1754 36.4017,69.1336 147.1908,-177.7663 154.8912,-667.8082 371.5325,-667.8082 52.576,0 106.9206,49.28 129.2848,96.6338 96.2359,203.8728 -63.6292,441.3784 -133.3008,575.2494 z" style="fill:none;stroke:#000;stroke-width:357.58380127;stroke-linecap:butt;stroke-linejoin:round;stroke-miterlimit:3.8636899;stroke-opacity:1;stroke-dasharray:none"/><path id="path244" d="m 2363.7468,3205.7479 c 213.4801,0 89.0587,-533.441 13.1421,-694.2905 -65.0108,-137.7053 -211.3653,-336.321 -384.8184,-336.321 -208.1083,0 -201.9185,233.0877 -119.079,408.5555 44.8462,94.9994 113.7698,201.4906 208.7273,279.7811 -24.3058,-81.7198 57.8558,-137.5374 24.6264,-207.9478 -22.6958,-48.0834 -69.6716,-100.6176 -94.0806,-152.3346 -39.4781,-83.6097 -24.3943,-232.0042 70.9795,-232.0042 85.3744,0 161.2357,105.7579 192.3355,171.6373 63.7139,134.9946 223.0227,710.9008 44.9494,710.9008 -205.0871,0 -558.4851,-499.7681 -632.4895,-656.5316 -132.0923,-279.8176 -36.3427,-624.4857 264.6266,-624.4857 203.3592,0 370.6262,195.5075 451.4209,366.6741 48.129,101.9492 74.336,203.3877 84.6559,299.0364 l 39.4781,7.2234 c 8.7209,-263.2948 287.2635,-699.2703 168.6892,-950.4385 -151.7521,-321.4728 -605.5052,-318.5944 -864.5905,-432.6848 -54.4588,127.3882 -128.2348,245.8272 -232.1158,336.2189 231.1062,77.7397 799.0197,208.2762 922.5053,469.8783 51.8981,109.9168 16.5649,292.1558 -43.3946,353.92 -10.202,-38.8498 -24.3206,-78.4511 -43.0593,-118.14 -105.7379,-223.9817 -332.1281,-397.6839 -565.5223,-397.6839 -324.9473,0 -462.7061,233.5 -309.7787,557.5046 91.7815,194.413 560.46,841.5322 802.7925,841.5322" style="fill:#000;fill-opacity:1;fill-rule:nonzero;stroke:none"/><path id="path246" d="m 2363.7468,3205.7479 c 213.4801,0 89.0587,-533.441 13.1421,-694.2905 -65.0108,-137.7053 -211.3653,-336.321 -384.8184,-336.321 -208.1083,0 -201.9185,233.0877 -119.079,408.5555 44.8462,94.9994 113.7698,201.4906 208.7273,279.7811 -24.3058,-81.7198 57.8558,-137.5374 24.6264,-207.9478 -22.6958,-48.0834 -69.6716,-100.6176 -94.0806,-152.3346 -39.4781,-83.6097 -24.3943,-232.0042 70.9795,-232.0042 85.3744,0 161.2357,105.7579 192.3355,171.6373 63.7139,134.9946 223.0227,710.9008 44.9494,710.9008 -205.0871,0 -558.4851,-499.7681 -632.4895,-656.5316 -132.0923,-279.8176 -36.3427,-624.4857 264.6266,-624.4857 203.3592,0 370.6262,195.5075 451.4209,366.6741 48.129,101.9492 74.336,203.3877 84.6559,299.0364 l 39.4781,7.2234 c 8.7209,-263.2948 287.2635,-699.2703 168.6892,-950.4385 -151.7521,-321.4728 -605.5052,-318.5944 -864.5905,-432.6848 -54.4588,127.3882 -128.2348,245.8272 -232.1158,336.2189 231.1062,77.7397 799.0197,208.2762 922.5053,469.8783 51.8981,109.9168 16.5649,292.1558 -43.3946,353.92 -10.202,-38.8498 -24.3206,-78.4511 -43.0593,-118.14 -105.7379,-223.9817 -332.1281,-397.6839 -565.5223,-397.6839 -324.9473,0 -462.7061,233.5 -309.7787,557.5046 91.7815,194.413 560.46,841.5322 802.7925,841.5322 z" style="fill:none;stroke:#000;stroke-width:29.799263;stroke-linecap:butt;stroke-linejoin:miter;stroke-miterlimit:3.86370993;stroke-opacity:1;stroke-dasharray:none"/><path id="path248" d="m 2918.9086,2433.6886 c 12.9101,-31.7212 50.2291,-211.3371 78.5804,-211.3371 61.2085,0 171.8283,166.548 201.5022,209.7866 54.433,-35.643 24.2359,-110.4751 125.1104,-110.4751 45.6679,0 68.6363,98.374 116.161,99.9719 1.6838,-39.7618 4.2297,-75.7441 -17.4455,-121.6751 -33.432,-70.8263 -118.0143,-166.7924 -201.1559,-166.7924 -59.5543,0 -142.4969,71.6982 -158.7893,71.6982 -17.7034,0 -50.1849,-8.2814 -60.549,-30.2108 -43.2914,-91.7342 72.4533,-397.9684 188.5369,-397.9684 62.0302,0 136.0493,45.5004 200.9275,73.577 -16.8929,-110.3473 -19.2398,-203.3876 3.1096,-298.3285 -59.1232,-37.4635 -128.3784,-53.2566 -183.9572,-53.2566 -285.2371,0 -127.9326,663.361 -390.9492,804.689 l 98.9181,130.3213" style="fill:#000;fill-opacity:1;fill-rule:nonzero;stroke:none"/><path id="path250" d="m 2918.9086,2433.6886 c 12.9101,-31.7212 50.2291,-211.3371 78.5804,-211.3371 61.2085,0 171.8283,166.548 201.5022,209.7866 54.433,-35.643 24.2359,-110.4751 125.1104,-110.4751 45.6679,0 68.6363,98.374 116.161,99.9719 1.6838,-39.7618 4.2297,-75.7441 -17.4455,-121.6751 -33.432,-70.8263 -118.0143,-166.7924 -201.1559,-166.7924 -59.5543,0 -142.4969,71.6982 -158.7893,71.6982 -17.7034,0 -50.1849,-8.2814 -60.549,-30.2108 -43.2914,-91.7342 72.4533,-397.9684 188.5369,-397.9684 62.0302,0 136.0493,45.5004 200.9275,73.577 -16.8929,-110.3473 -19.2398,-203.3876 3.1096,-298.3285 -59.1232,-37.4635 -128.3784,-53.2566 -183.9572,-53.2566 -285.2371,0 -127.9326,663.361 -390.9492,804.689 l 98.9181,130.3213 z" style="fill:none;stroke:#000;stroke-width:29.799263;stroke-linecap:butt;stroke-linejoin:miter;stroke-miterlimit:3.86370993;stroke-opacity:1;stroke-dasharray:none"/><path id="path252" d="m 4015.1837,2486.8466 c 215.5729,0 300.682,-387.7936 203.9671,-592.6916 -75.0507,-158.956 -208.0936,-274.1847 -378.5328,-274.1847 -301.0062,0 -263.2855,410.3213 -145.8645,659.0999 32.3857,68.5316 143.0275,217.9075 229.5735,217.9075 31.7962,0 58.1395,-10.1311 90.8567,-10.1311 z m -6.6687,-36.1975 c -33.9331,0 -63.7766,-16.7745 -79.5088,-50.1629 -33.0489,-69.9726 131.7164,-140.7843 108.0627,-190.8633 -14.8849,-31.5205 -71.5506,-61.0199 -100.1413,-61.0199 -142.8433,0 -141.6275,185.8579 -56.4815,306.9894 -52.9445,-33.7313 -87.6513,-85.2623 -110.1997,-133.0574 -83.7091,-177.2957 -17.2798,-421.1966 173.7552,-421.1966 105.5574,0 227.1418,94.8388 274.3755,194.9493 58.1395,123.0978 -90.5251,354.3614 -209.8621,354.3614" style="fill:#000;fill-opacity:1;fill-rule:evenodd;stroke:none"/><path id="path254" d="m 4015.1837,2486.8466 c 215.5729,0 300.682,-387.7936 203.9671,-592.6916 -75.0507,-158.956 -208.0936,-274.1847 -378.5328,-274.1847 -301.0062,0 -263.2855,410.3213 -145.8645,659.0999 32.3857,68.5316 143.0275,217.9075 229.5735,217.9075 31.7962,0 58.1395,-10.1311 90.8567,-10.1311 z" style="fill:none;stroke:#000;stroke-width:29.799263;stroke-linecap:butt;stroke-linejoin:miter;stroke-miterlimit:3.86370993;stroke-opacity:1;stroke-dasharray:none"/><path id="path256" d="m 4008.515,2450.6491 c -33.9331,0 -63.7766,-16.7745 -79.5088,-50.1629 -33.0489,-69.9726 131.7164,-140.7843 108.0627,-190.8633 -14.8849,-31.5205 -71.5506,-61.0199 -100.1413,-61.0199 -142.8433,0 -141.6275,185.8579 -56.4815,306.9894 -52.9445,-33.7313 -87.6513,-85.2623 -110.1997,-133.0574 -83.7091,-177.2957 -17.2798,-421.1966 173.7552,-421.1966 105.5574,0 227.1418,94.8388 274.3755,194.9493 58.1395,123.0978 -90.5251,354.3614 -209.8621,354.3614 z" style="fill:none;stroke:#000;stroke-width:29.799263;stroke-linecap:butt;stroke-linejoin:miter;stroke-miterlimit:3.86370993;stroke-opacity:1;stroke-dasharray:none"/><path id="path258" d="m 4994.8963,1848.4247 c -56.3341,-119.3219 -161.302,-184.8328 -279.4968,-184.8328 -375.1064,0 -449.5308,342.0451 -286.9761,686.4323 38.3912,81.2857 101.394,171.2104 197.5931,171.2104 301.3452,0 511.2809,-371.1213 368.8798,-672.8099 z m -299.2819,629.6005 c -27.6697,0 -51.9497,-10.0034 -65.2135,-38.1201 -29.1802,-61.8371 129.5795,-116.9725 129.8006,-180.8745 -16.5797,-19.6347 -63.0028,-41.6115 -83.2301,-41.6115 -114.3262,0 -200.6143,154.9942 -103.0151,270.1827 -39.6071,-25.1544 -63.1134,-62.8039 -79.8405,-98.2025 -98.9623,-209.6297 42.1125,-421.5687 247.6638,-421.5687 85.5512,0 195.8246,47.6128 240.2582,141.7694 62.8923,133.2581 -161.1178,368.4252 -286.4234,368.4252" style="fill:#000;fill-opacity:1;fill-rule:evenodd;stroke:none"/><path id="path260" d="m 4994.8963,1848.4247 c -56.3341,-119.3219 -161.302,-184.8328 -279.4968,-184.8328 -375.1064,0 -449.5308,342.0451 -286.9761,686.4323 38.3912,81.2857 101.394,171.2104 197.5931,171.2104 301.3452,0 511.2809,-371.1213 368.8798,-672.8099 z" style="fill:none;stroke:#000;stroke-width:29.799263;stroke-linecap:butt;stroke-linejoin:miter;stroke-miterlimit:3.86370993;stroke-opacity:1;stroke-dasharray:none"/><path id="path262" d="m 4695.6144,2478.0252 c -27.6697,0 -51.9497,-10.0034 -65.2135,-38.1201 -29.1802,-61.8371 129.5795,-116.9725 129.8006,-180.8745 -16.5797,-19.6347 -63.0028,-41.6115 -83.2301,-41.6115 -114.3262,0 -200.6143,154.9942 -103.0151,270.1827 -39.6071,-25.1544 -63.1134,-62.8039 -79.8405,-98.2025 -98.9623,-209.6297 42.1125,-421.5687 247.6638,-421.5687 85.5512,0 195.8246,47.6128 240.2582,141.7694 62.8923,133.2581 -161.1178,368.4252 -286.4234,368.4252 z" style="fill:none;stroke:#000;stroke-width:29.799263;stroke-linecap:butt;stroke-linejoin:miter;stroke-miterlimit:3.86370993;stroke-opacity:1;stroke-dasharray:none"/><path id="path264" d="m 5382.8243,2480.0755 c 323.2672,0 487.5167,-593.2023 343.0523,-899.1666 -27.596,-58.5026 -79.0667,-116.9725 -146.9329,-116.9725 -369.3219,0 -275.0388,734.1034 -482.9481,942.6788 19.0114,20.1928 37.2122,41.3269 53.9024,62.6033 140.4853,-164.8699 70.6664,-598.7622 370.722,-598.7622 69.1189,0 121.4002,60.5238 149.2909,119.5919 74.4981,157.8434 -63.3713,431.9843 -214.2833,431.9843 -1.5106,0 -23.1748,-0.8974 -22.6958,-9.675 5.5634,-100.7416 84.8144,-37.9231 5.0108,-209.3743 -81.5353,16.2454 -167.8971,147.1395 -123.3161,241.5953 13.1164,27.7592 45.9442,35.497 68.1978,35.497" style="fill:#000;fill-opacity:1;fill-rule:nonzero;stroke:none"/><path id="path266" d="m 5382.8243,2480.0755 c 323.2672,0 487.5167,-593.2023 343.0523,-899.1666 -27.596,-58.5026 -79.0667,-116.9725 -146.9329,-116.9725 -369.3219,0 -275.0388,734.1034 -482.9481,942.6788 19.0114,20.1928 37.2122,41.3269 53.9024,62.6033 140.4853,-164.8699 70.6664,-598.7622 370.722,-598.7622 69.1189,0 121.4002,60.5238 149.2909,119.5919 74.4981,157.8434 -63.3713,431.9843 -214.2833,431.9843 -1.5106,0 -23.1748,-0.8974 -22.6958,-9.675 5.5634,-100.7416 84.8144,-37.9231 5.0108,-209.3743 -81.5353,16.2454 -167.8971,147.1395 -123.3161,241.5953 13.1164,27.7592 45.9442,35.497 68.1978,35.497 z" style="fill:none;stroke:#000;stroke-width:29.799263;stroke-linecap:butt;stroke-linejoin:miter;stroke-miterlimit:3.86370993;stroke-opacity:1;stroke-dasharray:none"/><path id="path268" d="m 6186.6447,2486.6751 c 30.433,-2.8784 76.1929,-0.1568 102.3152,-8.1099 4.9002,-1.4812 1.179,-7.6102 2.0264,-12.4404 7.9214,-44.8183 20.4114,-87.3564 31.2066,-130.6642 42.1125,-168.7735 67.461,-342.0196 115.8,-509.2972 52.576,-182.1259 107.3996,-387.3668 43.7335,-615.9051 -6.2266,-22.3599 -14.5532,-45.0627 -25.3116,-67.8494 -72.177,-152.9256 -257.759,-298.49641 -420.0558,-298.49641 -19.7114,0 -40.9703,5.57082 -50.4023,18.39792 68.4926,43.53406 111.3419,88.18449 141.9591,152.99489 36.6964,77.7105 36.1437,150.4886 31.3172,217.4843 12.969,-7.5408 54.5287,-26.3802 71.8453,-26.3802 70.1874,0 130.4638,67.8786 158.6124,127.545 51.7287,109.574 42.8862,221.4025 33.9331,314.7164 -4.4949,46.7116 -10.7952,92.7994 -19.4903,137.5629 l -13.1901,64.8251 -1.658,7.0994 -1.6211,7.0811 c 7.8477,0 0.8106,-13.7646 1.1053,-20.6926 4.8266,-112.9668 2.8001,-270.6788 -57.8815,-399.249 -28.2224,-59.7394 -74.3508,-121.3321 -145.1645,-121.3321 -310.3719,0 -154.2648,880.258 -402.9971,1089.5009 13.7796,22.7612 26.0854,46.1754 36.4017,69.1336 147.1908,-177.7663 154.8912,-667.8082 371.5325,-667.8082 52.576,0 106.9206,49.28 129.2848,96.6338 96.2359,203.8728 -63.6292,441.3784 -133.3008,575.2494" style="fill:#000;fill-opacity:1;fill-rule:evenodd;stroke:none"/><path id="path270" d="m 6186.6447,2486.6751 c 30.433,-2.8784 76.1929,-0.1568 102.3152,-8.1099 4.9002,-1.4812 1.179,-7.6102 2.0264,-12.4404 7.9214,-44.8183 20.4114,-87.3564 31.2066,-130.6642 42.1125,-168.7735 67.461,-342.0196 115.8,-509.2972 52.576,-182.1259 107.3996,-387.3668 43.7335,-615.9051 -6.2266,-22.3599 -14.5532,-45.0627 -25.3116,-67.8494 -72.177,-152.9256 -257.759,-298.49641 -420.0558,-298.49641 -19.7114,0 -40.9703,5.57082 -50.4023,18.39792 68.4926,43.53406 111.3419,88.18449 141.9591,152.99489 36.6964,77.7105 36.1437,150.4886 31.3172,217.4843 12.969,-7.5408 54.5287,-26.3802 71.8453,-26.3802 70.1874,0 130.4638,67.8786 158.6124,127.545 51.7287,109.574 42.8862,221.4025 33.9331,314.7164 -4.4949,46.7116 -10.7952,92.7994 -19.4903,137.5629 l -13.1901,64.8251 -1.658,7.0994 -1.6211,7.0811 c 7.8477,0 0.8106,-13.7646 1.1053,-20.6926 4.8266,-112.9668 2.8001,-270.6788 -57.8815,-399.249 -28.2224,-59.7394 -74.3508,-121.3321 -145.1645,-121.3321 -310.3719,0 -154.2648,880.258 -402.9971,1089.5009 13.7796,22.7612 26.0854,46.1754 36.4017,69.1336 147.1908,-177.7663 154.8912,-667.8082 371.5325,-667.8082 52.576,0 106.9206,49.28 129.2848,96.6338 96.2359,203.8728 -63.6292,441.3784 -133.3008,575.2494 z" style="fill:none;stroke:#000;stroke-width:29.799263;stroke-linecap:butt;stroke-linejoin:miter;stroke-miterlimit:3.86370993;stroke-opacity:1;stroke-dasharray:none"/><path id="path272" d="m 2363.7468,3205.7479 c 213.4801,0 89.0587,-533.441 13.1421,-694.2905 -65.0108,-137.7053 -211.3653,-336.321 -384.8184,-336.321 -208.1083,0 -201.9185,233.0877 -119.079,408.5555 44.8462,94.9994 113.7698,201.4906 208.7273,279.7811 -24.3058,-81.7198 57.8558,-137.5374 24.6264,-207.9478 -22.6958,-48.0834 -69.6716,-100.6176 -94.0806,-152.3346 -39.4781,-83.6097 -24.3943,-232.0042 70.9795,-232.0042 85.3744,0 161.2357,105.7579 192.3355,171.6373 63.7139,134.9946 223.0227,710.9008 44.9494,710.9008 -205.0871,0 -558.4851,-499.7681 -632.4895,-656.5316 -132.0923,-279.8176 -36.3427,-624.4857 264.6266,-624.4857 203.3592,0 370.6262,195.5075 451.4209,366.6741 48.129,101.9492 74.336,203.3877 84.6559,299.0364 l 39.4781,7.2234 c 8.7209,-263.2948 287.2635,-699.2703 168.6892,-950.4385 -151.7521,-321.4728 -605.5052,-318.5944 -864.5905,-432.6848 -54.4588,127.3882 -128.2348,245.8272 -232.1158,336.2189 231.1062,77.7397 799.0197,208.2762 922.5053,469.8783 51.8981,109.9168 16.5649,292.1558 -43.3946,353.92 -10.202,-38.8498 -24.3206,-78.4511 -43.0593,-118.14 -105.7379,-223.9817 -332.1281,-397.6839 -565.5223,-397.6839 -324.9473,0 -462.7061,233.5 -309.7787,557.5046 91.7815,194.413 560.46,841.5322 802.7925,841.5322" style="fill:#000;fill-opacity:1;fill-rule:nonzero;stroke:none"/><path id="path274" d="m 2363.7468,3205.7479 c 213.4801,0 89.0587,-533.441 13.1421,-694.2905 -65.0108,-137.7053 -211.3653,-336.321 -384.8184,-336.321 -208.1083,0 -201.9185,233.0877 -119.079,408.5555 44.8462,94.9994 113.7698,201.4906 208.7273,279.7811 -24.3058,-81.7198 57.8558,-137.5374 24.6264,-207.9478 -22.6958,-48.0834 -69.6716,-100.6176 -94.0806,-152.3346 -39.4781,-83.6097 -24.3943,-232.0042 70.9795,-232.0042 85.3744,0 161.2357,105.7579 192.3355,171.6373 63.7139,134.9946 223.0227,710.9008 44.9494,710.9008 -205.0871,0 -558.4851,-499.7681 -632.4895,-656.5316 -132.0923,-279.8176 -36.3427,-624.4857 264.6266,-624.4857 203.3592,0 370.6262,195.5075 451.4209,366.6741 48.129,101.9492 74.336,203.3877 84.6559,299.0364 l 39.4781,7.2234 c 8.7209,-263.2948 287.2635,-699.2703 168.6892,-950.4385 -151.7521,-321.4728 -605.5052,-318.5944 -864.5905,-432.6848 -54.4588,127.3882 -128.2348,245.8272 -232.1158,336.2189 231.1062,77.7397 799.0197,208.2762 922.5053,469.8783 51.8981,109.9168 16.5649,292.1558 -43.3946,353.92 -10.202,-38.8498 -24.3206,-78.4511 -43.0593,-118.14 -105.7379,-223.9817 -332.1281,-397.6839 -565.5223,-397.6839 -324.9473,0 -462.7061,233.5 -309.7787,557.5046 91.7815,194.413 560.46,841.5322 802.7925,841.5322 z" style="fill:none;stroke:#000;stroke-width:357.58380127;stroke-linecap:butt;stroke-linejoin:round;stroke-miterlimit:3.8636899;stroke-opacity:1;stroke-dasharray:none"/><path id="path276" d="m 2918.9086,2433.6886 c 12.9101,-31.7212 50.2291,-211.3371 78.5804,-211.3371 61.2085,0 171.8283,166.548 201.5022,209.7866 54.433,-35.643 24.2359,-110.4751 125.1104,-110.4751 45.6679,0 68.6363,98.374 116.161,99.9719 1.6838,-39.7618 4.2297,-75.7441 -17.4455,-121.6751 -33.432,-70.8263 -118.0143,-166.7924 -201.1559,-166.7924 -59.5543,0 -142.4969,71.6982 -158.7893,71.6982 -17.7034,0 -50.1849,-8.2814 -60.549,-30.2108 -43.2914,-91.7342 72.4533,-397.9684 188.5369,-397.9684 62.0302,0 136.0493,45.5004 200.9275,73.577 -16.8929,-110.3473 -19.2398,-203.3876 3.1096,-298.3285 -59.1232,-37.4635 -128.3784,-53.2566 -183.9572,-53.2566 -285.2371,0 -127.9326,663.361 -390.9492,804.689 l 98.9181,130.3213" style="fill:#000;fill-opacity:1;fill-rule:nonzero;stroke:none"/><path id="path278" d="m 2918.9086,2433.6886 c 12.9101,-31.7212 50.2291,-211.3371 78.5804,-211.3371 61.2085,0 171.8283,166.548 201.5022,209.7866 54.433,-35.643 24.2359,-110.4751 125.1104,-110.4751 45.6679,0 68.6363,98.374 116.161,99.9719 1.6838,-39.7618 4.2297,-75.7441 -17.4455,-121.6751 -33.432,-70.8263 -118.0143,-166.7924 -201.1559,-166.7924 -59.5543,0 -142.4969,71.6982 -158.7893,71.6982 -17.7034,0 -50.1849,-8.2814 -60.549,-30.2108 -43.2914,-91.7342 72.4533,-397.9684 188.5369,-397.9684 62.0302,0 136.0493,45.5004 200.9275,73.577 -16.8929,-110.3473 -19.2398,-203.3876 3.1096,-298.3285 -59.1232,-37.4635 -128.3784,-53.2566 -183.9572,-53.2566 -285.2371,0 -127.9326,663.361 -390.9492,804.689 l 98.9181,130.3213 z" style="fill:none;stroke:#000;stroke-width:357.58380127;stroke-linecap:butt;stroke-linejoin:round;stroke-miterlimit:3.8636899;stroke-opacity:1;stroke-dasharray:none"/><path id="path280" d="m 4015.1837,2486.8466 c 215.5729,0 300.682,-387.7936 203.9671,-592.6916 -75.0507,-158.956 -208.0936,-274.1847 -378.5328,-274.1847 -301.0062,0 -263.2855,410.3213 -145.8645,659.0999 32.3857,68.5316 143.0275,217.9075 229.5735,217.9075 31.7962,0 58.1395,-10.1311 90.8567,-10.1311 z m -6.6687,-36.1975 c -33.9331,0 -63.7766,-16.7745 -79.5088,-50.1629 -33.0489,-69.9726 131.7164,-140.7843 108.0627,-190.8633 -14.8849,-31.5205 -71.5506,-61.0199 -100.1413,-61.0199 -142.8433,0 -141.6275,185.8579 -56.4815,306.9894 -52.9445,-33.7313 -87.6513,-85.2623 -110.1997,-133.0574 -83.7091,-177.2957 -17.2798,-421.1966 173.7552,-421.1966 105.5574,0 227.1418,94.8388 274.3755,194.9493 58.1395,123.0978 -90.5251,354.3614 -209.8621,354.3614" style="fill:#000;fill-opacity:1;fill-rule:evenodd;stroke:none"/><path id="path282" d="m 4015.1837,2486.8466 c 215.5729,0 300.682,-387.7936 203.9671,-592.6916 -75.0507,-158.956 -208.0936,-274.1847 -378.5328,-274.1847 -301.0062,0 -263.2855,410.3213 -145.8645,659.0999 32.3857,68.5316 143.0275,217.9075 229.5735,217.9075 31.7962,0 58.1395,-10.1311 90.8567,-10.1311 z" style="fill:none;stroke:#000;stroke-width:357.58380127;stroke-linecap:butt;stroke-linejoin:round;stroke-miterlimit:3.8636899;stroke-opacity:1;stroke-dasharray:none"/><path id="path284" d="m 4008.515,2450.6491 c -33.9331,0 -63.7766,-16.7745 -79.5088,-50.1629 -33.0489,-69.9726 131.7164,-140.7843 108.0627,-190.8633 -14.8849,-31.5205 -71.5506,-61.0199 -100.1413,-61.0199 -142.8433,0 -141.6275,185.8579 -56.4815,306.9894 -52.9445,-33.7313 -87.6513,-85.2623 -110.1997,-133.0574 -83.7091,-177.2957 -17.2798,-421.1966 173.7552,-421.1966 105.5574,0 227.1418,94.8388 274.3755,194.9493 58.1395,123.0978 -90.5251,354.3614 -209.8621,354.3614 z" style="fill:none;stroke:#000;stroke-width:357.58380127;stroke-linecap:butt;stroke-linejoin:round;stroke-miterlimit:3.8636899;stroke-opacity:1;stroke-dasharray:none"/><path id="path286" d="m 4994.8963,1848.4247 c -56.3341,-119.3219 -161.302,-184.8328 -279.4968,-184.8328 -375.1064,0 -449.5308,342.0451 -286.9761,686.4323 38.3912,81.2857 101.394,171.2104 197.5931,171.2104 301.3452,0 511.2809,-371.1213 368.8798,-672.8099 z m -299.2819,629.6005 c -27.6697,0 -51.9497,-10.0034 -65.2135,-38.1201 -29.1802,-61.8371 129.5795,-116.9725 129.8006,-180.8745 -16.5797,-19.6347 -63.0028,-41.6115 -83.2301,-41.6115 -114.3262,0 -200.6143,154.9942 -103.0151,270.1827 -39.6071,-25.1544 -63.1134,-62.8039 -79.8405,-98.2025 -98.9623,-209.6297 42.1125,-421.5687 247.6638,-421.5687 85.5512,0 195.8246,47.6128 240.2582,141.7694 62.8923,133.2581 -161.1178,368.4252 -286.4234,368.4252" style="fill:#000;fill-opacity:1;fill-rule:evenodd;stroke:none"/><path id="path288" d="m 4994.8963,1848.4247 c -56.3341,-119.3219 -161.302,-184.8328 -279.4968,-184.8328 -375.1064,0 -449.5308,342.0451 -286.9761,686.4323 38.3912,81.2857 101.394,171.2104 197.5931,171.2104 301.3452,0 511.2809,-371.1213 368.8798,-672.8099 z" style="fill:none;stroke:#000;stroke-width:357.58380127;stroke-linecap:butt;stroke-linejoin:round;stroke-miterlimit:3.8636899;stroke-opacity:1;stroke-dasharray:none"/><path id="path290" d="m 4695.6144,2478.0252 c -27.6697,0 -51.9497,-10.0034 -65.2135,-38.1201 -29.1802,-61.8371 129.5795,-116.9725 129.8006,-180.8745 -16.5797,-19.6347 -63.0028,-41.6115 -83.2301,-41.6115 -114.3262,0 -200.6143,154.9942 -103.0151,270.1827 -39.6071,-25.1544 -63.1134,-62.8039 -79.8405,-98.2025 -98.9623,-209.6297 42.1125,-421.5687 247.6638,-421.5687 85.5512,0 195.8246,47.6128 240.2582,141.7694 62.8923,133.2581 -161.1178,368.4252 -286.4234,368.4252 z" style="fill:none;stroke:#000;stroke-width:357.58380127;stroke-linecap:butt;stroke-linejoin:round;stroke-miterlimit:3.8636899;stroke-opacity:1;stroke-dasharray:none"/><path id="path292" d="m 5382.8243,2480.0755 c 323.2672,0 487.5167,-593.2023 343.0523,-899.1666 -27.596,-58.5026 -79.0667,-116.9725 -146.9329,-116.9725 -369.3219,0 -275.0388,734.1034 -482.9481,942.6788 19.0114,20.1928 37.2122,41.3269 53.9024,62.6033 140.4853,-164.8699 70.6664,-598.7622 370.722,-598.7622 69.1189,0 121.4002,60.5238 149.2909,119.5919 74.4981,157.8434 -63.3713,431.9843 -214.2833,431.9843 -1.5106,0 -23.1748,-0.8974 -22.6958,-9.675 5.5634,-100.7416 84.8144,-37.9231 5.0108,-209.3743 -81.5353,16.2454 -167.8971,147.1395 -123.3161,241.5953 13.1164,27.7592 45.9442,35.497 68.1978,35.497" style="fill:#000;fill-opacity:1;fill-rule:nonzero;stroke:none"/><path id="path294" d="m 5382.8243,2480.0755 c 323.2672,0 487.5167,-593.2023 343.0523,-899.1666 -27.596,-58.5026 -79.0667,-116.9725 -146.9329,-116.9725 -369.3219,0 -275.0388,734.1034 -482.9481,942.6788 19.0114,20.1928 37.2122,41.3269 53.9024,62.6033 140.4853,-164.8699 70.6664,-598.7622 370.722,-598.7622 69.1189,0 121.4002,60.5238 149.2909,119.5919 74.4981,157.8434 -63.3713,431.9843 -214.2833,431.9843 -1.5106,0 -23.1748,-0.8974 -22.6958,-9.675 5.5634,-100.7416 84.8144,-37.9231 5.0108,-209.3743 -81.5353,16.2454 -167.8971,147.1395 -123.3161,241.5953 13.1164,27.7592 45.9442,35.497 68.1978,35.497 z" style="fill:none;stroke:#000;stroke-width:357.58380127;stroke-linecap:butt;stroke-linejoin:round;stroke-miterlimit:3.8636899;stroke-opacity:1;stroke-dasharray:none"/><path id="path296" d="m 6186.6447,2486.6751 c 30.433,-2.8784 76.1929,-0.1568 102.3152,-8.1099 4.9002,-1.4812 1.179,-7.6102 2.0264,-12.4404 7.9214,-44.8183 20.4114,-87.3564 31.2066,-130.6642 42.1125,-168.7735 67.461,-342.0196 115.8,-509.2972 52.576,-182.1259 107.3996,-387.3668 43.7335,-615.9051 -6.2266,-22.3599 -14.5532,-45.0627 -25.3116,-67.8494 -72.177,-152.9256 -257.759,-298.49641 -420.0558,-298.49641 -19.7114,0 -40.9703,5.57082 -50.4023,18.39792 68.4926,43.53406 111.3419,88.18449 141.9591,152.99489 36.6964,77.7105 36.1437,150.4886 31.3172,217.4843 12.969,-7.5408 54.5287,-26.3802 71.8453,-26.3802 70.1874,0 130.4638,67.8786 158.6124,127.545 51.7287,109.574 42.8862,221.4025 33.9331,314.7164 -4.4949,46.7116 -10.7952,92.7994 -19.4903,137.5629 l -13.1901,64.8251 -1.658,7.0994 -1.6211,7.0811 c 7.8477,0 0.8106,-13.7646 1.1053,-20.6926 4.8266,-112.9668 2.8001,-270.6788 -57.8815,-399.249 -28.2224,-59.7394 -74.3508,-121.3321 -145.1645,-121.3321 -310.3719,0 -154.2648,880.258 -402.9971,1089.5009 13.7796,22.7612 26.0854,46.1754 36.4017,69.1336 147.1908,-177.7663 154.8912,-667.8082 371.5325,-667.8082 52.576,0 106.9206,49.28 129.2848,96.6338 96.2359,203.8728 -63.6292,441.3784 -133.3008,575.2494" style="fill:#000;fill-opacity:1;fill-rule:evenodd;stroke:none"/><path id="path298" d="m 6186.6447,2486.6751 c 30.433,-2.8784 76.1929,-0.1568 102.3152,-8.1099 4.9002,-1.4812 1.179,-7.6102 2.0264,-12.4404 7.9214,-44.8183 20.4114,-87.3564 31.2066,-130.6642 42.1125,-168.7735 67.461,-342.0196 115.8,-509.2972 52.576,-182.1259 107.3996,-387.3668 43.7335,-615.9051 -6.2266,-22.3599 -14.5532,-45.0627 -25.3116,-67.8494 -72.177,-152.9256 -257.759,-298.49641 -420.0558,-298.49641 -19.7114,0 -40.9703,5.57082 -50.4023,18.39792 68.4926,43.53406 111.3419,88.18449 141.9591,152.99489 36.6964,77.7105 36.1437,150.4886 31.3172,217.4843 12.969,-7.5408 54.5287,-26.3802 71.8453,-26.3802 70.1874,0 130.4638,67.8786 158.6124,127.545 51.7287,109.574 42.8862,221.4025 33.9331,314.7164 -4.4949,46.7116 -10.7952,92.7994 -19.4903,137.5629 l -13.1901,64.8251 -1.658,7.0994 -1.6211,7.0811 c 7.8477,0 0.8106,-13.7646 1.1053,-20.6926 4.8266,-112.9668 2.8001,-270.6788 -57.8815,-399.249 -28.2224,-59.7394 -74.3508,-121.3321 -145.1645,-121.3321 -310.3719,0 -154.2648,880.258 -402.9971,1089.5009 13.7796,22.7612 26.0854,46.1754 36.4017,69.1336 147.1908,-177.7663 154.8912,-667.8082 371.5325,-667.8082 52.576,0 106.9206,49.28 129.2848,96.6338 96.2359,203.8728 -63.6292,441.3784 -133.3008,575.2494 z" style="fill:none;stroke:#000;stroke-width:357.58380127;stroke-linecap:butt;stroke-linejoin:round;stroke-miterlimit:3.8636899;stroke-opacity:1;stroke-dasharray:none"/><path id="path300" d="m 2363.7468,3205.7479 c 213.4801,0 89.0587,-533.441 13.1421,-694.2905 -65.0108,-137.7053 -211.3653,-336.321 -384.8184,-336.321 -208.1083,0 -201.9185,233.0877 -119.079,408.5555 44.8462,94.9994 113.7698,201.4906 208.7273,279.7811 -24.3058,-81.7198 57.8558,-137.5374 24.6264,-207.9478 -22.6958,-48.0834 -69.6716,-100.6176 -94.0806,-152.3346 -39.4781,-83.6097 -24.3943,-232.0042 70.9795,-232.0042 85.3744,0 161.2357,105.7579 192.3355,171.6373 63.7139,134.9946 223.0227,710.9008 44.9494,710.9008 -205.0871,0 -558.4851,-499.7681 -632.4895,-656.5316 -132.0923,-279.8176 -36.3427,-624.4857 264.6266,-624.4857 203.3592,0 370.6262,195.5075 451.4209,366.6741 48.129,101.9492 74.336,203.3877 84.6559,299.0364 l 39.4781,7.2234 c 8.7209,-263.2948 287.2635,-699.2703 168.6892,-950.4385 -151.7521,-321.4728 -605.5052,-318.5944 -864.5905,-432.6848 -54.4588,127.3882 -128.2348,245.8272 -232.1158,336.2189 231.1062,77.7397 799.0197,208.2762 922.5053,469.8783 51.8981,109.9168 16.5649,292.1558 -43.3946,353.92 -10.202,-38.8498 -24.3206,-78.4511 -43.0593,-118.14 -105.7379,-223.9817 -332.1281,-397.6839 -565.5223,-397.6839 -324.9473,0 -462.7061,233.5 -309.7787,557.5046 91.7815,194.413 560.46,841.5322 802.7925,841.5322" style="fill:#fff;fill-opacity:1;fill-rule:nonzero;stroke:none"/><path id="path302" d="m 2918.9086,2433.6886 c 12.9101,-31.7212 50.2291,-211.3371 78.5804,-211.3371 61.2085,0 171.8283,166.548 201.5022,209.7866 54.433,-35.643 24.2359,-110.4751 125.1104,-110.4751 45.6679,0 68.6363,98.374 116.161,99.9719 1.6838,-39.7618 4.2297,-75.7441 -17.4455,-121.6751 -33.432,-70.8263 -118.0143,-166.7924 -201.1559,-166.7924 -59.5543,0 -142.4969,71.6982 -158.7893,71.6982 -17.7034,0 -50.1849,-8.2814 -60.549,-30.2108 -43.2914,-91.7342 72.4533,-397.9684 188.5369,-397.9684 62.0302,0 136.0493,45.5004 200.9275,73.577 -16.8929,-110.3473 -19.2398,-203.3876 3.1096,-298.3285 -59.1232,-37.4635 -128.3784,-53.2566 -183.9572,-53.2566 -285.2371,0 -127.9326,663.361 -390.9492,804.689 l 98.9181,130.3213" style="fill:#fff;fill-opacity:1;fill-rule:nonzero;stroke:none"/><path id="path304" d="m 4015.1837,2486.8466 c 215.5729,0 300.682,-387.7936 203.9671,-592.6916 -75.0507,-158.956 -208.0936,-274.1847 -378.5328,-274.1847 -301.0062,0 -263.2855,410.3213 -145.8645,659.0999 32.3857,68.5316 143.0275,217.9075 229.5735,217.9075 31.7962,0 58.1395,-10.1311 90.8567,-10.1311 z m -6.6687,-36.1975 c -33.9331,0 -63.7766,-16.7745 -79.5088,-50.1629 -33.0489,-69.9726 131.7164,-140.7843 108.0627,-190.8633 -14.8849,-31.5205 -71.5506,-61.0199 -100.1413,-61.0199 -142.8433,0 -141.6275,185.8579 -56.4815,306.9894 -52.9445,-33.7313 -87.6513,-85.2623 -110.1997,-133.0574 -83.7091,-177.2957 -17.2798,-421.1966 173.7552,-421.1966 105.5574,0 227.1418,94.8388 274.3755,194.9493 58.1395,123.0978 -90.5251,354.3614 -209.8621,354.3614" style="fill:#fff;fill-opacity:1;fill-rule:evenodd;stroke:none"/><path id="path306" d="m 4994.8963,1848.4247 c -56.3341,-119.3219 -161.302,-184.8328 -279.4968,-184.8328 -375.1064,0 -449.5308,342.0451 -286.9761,686.4323 38.3912,81.2857 101.394,171.2104 197.5931,171.2104 301.3452,0 511.2809,-371.1213 368.8798,-672.8099 z m -299.2819,629.6005 c -27.6697,0 -51.9497,-10.0034 -65.2135,-38.1201 -29.1802,-61.8371 129.5795,-116.9725 129.8006,-180.8745 -16.5797,-19.6347 -63.0028,-41.6115 -83.2301,-41.6115 -114.3262,0 -200.6143,154.9942 -103.0151,270.1827 -39.6071,-25.1544 -63.1134,-62.8039 -79.8405,-98.2025 -98.9623,-209.6297 42.1125,-421.5687 247.6638,-421.5687 85.5512,0 195.8246,47.6128 240.2582,141.7694 62.8923,133.2581 -161.1178,368.4252 -286.4234,368.4252" style="fill:#fff;fill-opacity:1;fill-rule:evenodd;stroke:none"/><path id="path308" d="m 5382.8243,2480.0755 c 323.2672,0 487.5167,-593.2023 343.0523,-899.1666 -27.596,-58.5026 -79.0667,-116.9725 -146.9329,-116.9725 -369.3219,0 -275.0388,734.1034 -482.9481,942.6788 19.0114,20.1928 37.2122,41.3269 53.9024,62.6033 140.4853,-164.8699 70.6664,-598.7622 370.722,-598.7622 69.1189,0 121.4002,60.5238 149.2909,119.5919 74.4981,157.8434 -63.3713,431.9843 -214.2833,431.9843 -1.5106,0 -23.1748,-0.8974 -22.6958,-9.675 5.5634,-100.7416 84.8144,-37.9231 5.0108,-209.3743 -81.5353,16.2454 -167.8971,147.1395 -123.3161,241.5953 13.1164,27.7592 45.9442,35.497 68.1978,35.497" style="fill:#fff;fill-opacity:1;fill-rule:nonzero;stroke:none"/><path id="path310" d="m 6186.6447,2486.6751 c 30.433,-2.8784 76.1929,-0.1568 102.3152,-8.1099 4.9002,-1.4812 1.179,-7.6102 2.0264,-12.4404 7.9214,-44.8183 20.4114,-87.3564 31.2066,-130.6642 42.1125,-168.7735 67.461,-342.0196 115.8,-509.2972 52.576,-182.1259 107.3996,-387.3668 43.7335,-615.9051 -6.2266,-22.3599 -14.5532,-45.0627 -25.3116,-67.8494 -242.0267,-464.90213 -760.0132,-339.59712 -922.2732,-339.59712 -19.7114,0 -41.0071,5.58905 -50.4022,18.4125 68.4557,43.53772 111.3418,88.1699 141.9222,152.98397 36.6963,77.71045 36.1437,150.48855 31.3172,217.49525 12.969,-7.5518 54.5656,-26.3802 71.8453,-26.3802 70.1874,0 461.4313,-201.01994 660.8666,168.6311 51.7287,109.574 42.8862,221.4025 33.9331,314.7164 -4.4949,46.7116 -10.7952,92.7994 -19.4903,137.5629 l -13.1901,64.8251 -1.658,7.0994 -1.6211,7.0811 c 7.8477,0 0.8106,-13.7646 1.1053,-20.6926 4.8266,-112.9668 2.8001,-270.6788 -57.8815,-399.249 -28.2224,-59.7394 -74.3508,-121.3321 -145.1645,-121.3321 -310.3719,0 -154.2648,880.258 -402.9971,1089.5009 13.7796,22.7612 26.0854,46.1754 36.4017,69.1336 147.1908,-177.7663 154.8912,-667.8082 371.5325,-667.8082 52.576,0 106.9206,49.28 129.2848,96.6338 96.2359,203.8728 -63.6292,441.3784 -133.3008,575.2494" style="fill:#fff;fill-opacity:1;fill-rule:evenodd;stroke:none"/></g></g></svg>